<mxfile host="app.diagrams.net" agent="Mozilla/5.0 (Windows NT 10.0; Win64; x64; rv:136.0) Gecko/20100101 Firefox/136.0" version="26.2.14">
  <diagram name="Страница — 1" id="aGvk24dkF4RmM80dlC_V">
    <mxGraphModel dx="1951" dy="2745" grid="1" gridSize="10" guides="1" tooltips="1" connect="1" arrows="1" fold="1" page="1" pageScale="1" pageWidth="827" pageHeight="1169" math="0" shadow="0">
      <root>
        <mxCell id="0" />
        <mxCell id="1" parent="0" />
        <object placeholders="1" c4Name="Будуюсщчее 2.0" c4Type="SystemScopeBoundary" c4Application="Очень далекое, не жестокое и прекрасное" label="&lt;font style=&quot;font-size: 16px&quot;&gt;&lt;b&gt;&lt;div style=&quot;text-align: left&quot;&gt;%c4Name%&lt;/div&gt;&lt;/b&gt;&lt;/font&gt;&lt;div style=&quot;text-align: left&quot;&gt;[%c4Application%]&lt;/div&gt;" id="qkIq2tXFl79Hgy0URCup-4">
          <mxCell style="rounded=1;fontSize=11;whiteSpace=wrap;html=1;dashed=1;arcSize=20;fillColor=none;strokeColor=#666666;fontColor=#333333;labelBackgroundColor=none;align=left;verticalAlign=bottom;labelBorderColor=none;spacingTop=0;spacing=10;dashPattern=8 4;metaEdit=1;rotatable=0;perimeter=rectanglePerimeter;noLabel=0;labelPadding=0;allowArrows=0;connectable=0;expand=0;recursiveResize=0;editable=1;pointerEvents=0;absoluteArcSize=1;points=[[0.25,0,0],[0.5,0,0],[0.75,0,0],[1,0.25,0],[1,0.5,0],[1,0.75,0],[0.75,1,0],[0.5,1,0],[0.25,1,0],[0,0.75,0],[0,0.5,0],[0,0.25,0]];" parent="1" vertex="1">
            <mxGeometry x="-530" y="-300" width="3250" height="2040" as="geometry" />
          </mxCell>
        </object>
        <object placeholders="1" c4Name="Система контроля доступа к данным" c4Type="Software System" c4Description="Фильтрует все все, что не нужно в соответствии с правами доступа и тегами" label="&lt;font style=&quot;font-size: 16px&quot;&gt;&lt;b&gt;%c4Name%&lt;/b&gt;&lt;/font&gt;&lt;div&gt;[%c4Type%]&lt;/div&gt;&lt;br&gt;&lt;div&gt;&lt;font style=&quot;font-size: 11px&quot;&gt;&lt;font color=&quot;#cccccc&quot;&gt;%c4Description%&lt;/font&gt;&lt;/div&gt;" id="qkIq2tXFl79Hgy0URCup-8">
          <mxCell style="rounded=1;whiteSpace=wrap;html=1;labelBackgroundColor=none;fillColor=#1061B0;fontColor=#ffffff;align=center;arcSize=10;strokeColor=#0D5091;metaEdit=1;resizable=0;points=[[0.25,0,0],[0.5,0,0],[0.75,0,0],[1,0.25,0],[1,0.5,0],[1,0.75,0],[0.75,1,0],[0.5,1,0],[0.25,1,0],[0,0.75,0],[0,0.5,0],[0,0.25,0]];" parent="1" vertex="1">
            <mxGeometry x="580" y="580" width="240" height="120" as="geometry" />
          </mxCell>
        </object>
        <object placeholders="1" c4Type="Relationship" c4Description="Публикация данных" label="&lt;div style=&quot;text-align: left&quot;&gt;&lt;div style=&quot;text-align: center&quot;&gt;&lt;b&gt;%c4Description%&lt;/b&gt;&lt;/div&gt;" id="qkIq2tXFl79Hgy0URCup-9">
          <mxCell style="endArrow=blockThin;html=1;fontSize=10;fontColor=#404040;strokeWidth=1;endFill=1;strokeColor=#828282;elbow=vertical;metaEdit=1;endSize=14;startSize=14;jumpStyle=arc;jumpSize=16;rounded=0;edgeStyle=orthogonalEdgeStyle;" parent="1" source="qkIq2tXFl79Hgy0URCup-16" target="qkIq2tXFl79Hgy0URCup-8" edge="1">
            <mxGeometry x="-0.9412" y="-70" width="240" relative="1" as="geometry">
              <mxPoint x="1140" y="880" as="sourcePoint" />
              <mxPoint x="1010" y="570" as="targetPoint" />
              <Array as="points">
                <mxPoint x="1290" y="600" />
              </Array>
              <mxPoint as="offset" />
            </mxGeometry>
          </mxCell>
        </object>
        <object placeholders="1" c4Type="Relationship" c4Description="Публикация данных" label="&lt;div style=&quot;text-align: left&quot;&gt;&lt;div style=&quot;text-align: center&quot;&gt;&lt;b&gt;%c4Description%&lt;/b&gt;&lt;/div&gt;" id="qkIq2tXFl79Hgy0URCup-11">
          <mxCell style="endArrow=blockThin;html=1;fontSize=10;fontColor=#404040;strokeWidth=1;endFill=1;strokeColor=#828282;elbow=vertical;metaEdit=1;endSize=14;startSize=14;jumpStyle=arc;jumpSize=16;rounded=0;edgeStyle=orthogonalEdgeStyle;" parent="1" source="qkIq2tXFl79Hgy0URCup-8" target="qkIq2tXFl79Hgy0URCup-2" edge="1">
            <mxGeometry width="240" relative="1" as="geometry">
              <mxPoint x="770" y="570" as="sourcePoint" />
              <mxPoint x="1010" y="570" as="targetPoint" />
              <Array as="points">
                <mxPoint x="710" y="280" />
              </Array>
            </mxGeometry>
          </mxCell>
        </object>
        <object placeholders="1" c4Type="Relationship" c4Description="Запросы данных" label="&lt;div style=&quot;text-align: left&quot;&gt;&lt;div style=&quot;text-align: center&quot;&gt;&lt;b&gt;%c4Description%&lt;/b&gt;&lt;/div&gt;" id="qkIq2tXFl79Hgy0URCup-12">
          <mxCell style="endArrow=blockThin;html=1;fontSize=10;fontColor=#404040;strokeWidth=1;endFill=1;strokeColor=#828282;elbow=vertical;metaEdit=1;endSize=14;startSize=14;jumpStyle=arc;jumpSize=16;rounded=0;edgeStyle=orthogonalEdgeStyle;" parent="1" source="qkIq2tXFl79Hgy0URCup-8" target="qkIq2tXFl79Hgy0URCup-16" edge="1">
            <mxGeometry x="0.9221" y="-40" width="240" relative="1" as="geometry">
              <mxPoint x="800" y="510" as="sourcePoint" />
              <mxPoint x="1030" y="880" as="targetPoint" />
              <Array as="points">
                <mxPoint x="1350" y="610" />
              </Array>
              <mxPoint as="offset" />
            </mxGeometry>
          </mxCell>
        </object>
        <object placeholders="1" c4Type="Relationship" c4Description="Запрос данных" label="&lt;div style=&quot;text-align: left&quot;&gt;&lt;div style=&quot;text-align: center&quot;&gt;&lt;b&gt;%c4Description%&lt;/b&gt;&lt;/div&gt;" id="qkIq2tXFl79Hgy0URCup-14">
          <mxCell style="endArrow=blockThin;html=1;fontSize=10;fontColor=#404040;strokeWidth=1;endFill=1;strokeColor=#828282;elbow=vertical;metaEdit=1;endSize=14;startSize=14;jumpStyle=arc;jumpSize=16;rounded=0;edgeStyle=orthogonalEdgeStyle;" parent="1" source="qkIq2tXFl79Hgy0URCup-2" target="qkIq2tXFl79Hgy0URCup-8" edge="1">
            <mxGeometry width="240" relative="1" as="geometry">
              <mxPoint x="710" y="590" as="sourcePoint" />
              <mxPoint x="700" y="450" as="targetPoint" />
              <Array as="points">
                <mxPoint x="730" y="240" />
              </Array>
            </mxGeometry>
          </mxCell>
        </object>
        <object placeholders="1" c4Type="Relationship" c4Description="Запросы данных" label="&lt;div style=&quot;text-align: left&quot;&gt;&lt;div style=&quot;text-align: center&quot;&gt;&lt;b&gt;%c4Description%&lt;/b&gt;&lt;/div&gt;" id="qkIq2tXFl79Hgy0URCup-20">
          <mxCell style="endArrow=blockThin;html=1;fontSize=10;fontColor=#404040;strokeWidth=1;endFill=1;strokeColor=#828282;elbow=vertical;metaEdit=1;endSize=14;startSize=14;jumpStyle=arc;jumpSize=16;rounded=0;edgeStyle=orthogonalEdgeStyle;" parent="1" source="qkIq2tXFl79Hgy0URCup-8" edge="1" target="qkIq2tXFl79Hgy0URCup-17">
            <mxGeometry x="0.952" y="-50" width="240" relative="1" as="geometry">
              <mxPoint x="780" y="680" as="sourcePoint" />
              <mxPoint x="1760" y="410" as="targetPoint" />
              <Array as="points">
                <mxPoint x="1750" y="630" />
              </Array>
              <mxPoint as="offset" />
            </mxGeometry>
          </mxCell>
        </object>
        <object placeholders="1" c4Type="Relationship" c4Description="Публикация данных" label="&lt;div style=&quot;text-align: left&quot;&gt;&lt;div style=&quot;text-align: center&quot;&gt;&lt;b&gt;%c4Description%&lt;/b&gt;&lt;/div&gt;" id="qkIq2tXFl79Hgy0URCup-21">
          <mxCell style="endArrow=blockThin;html=1;fontSize=10;fontColor=#404040;strokeWidth=1;endFill=1;strokeColor=#828282;elbow=vertical;metaEdit=1;endSize=14;startSize=14;jumpStyle=arc;jumpSize=16;rounded=0;edgeStyle=orthogonalEdgeStyle;" parent="1" source="qkIq2tXFl79Hgy0URCup-17" target="qkIq2tXFl79Hgy0URCup-8" edge="1">
            <mxGeometry x="-0.9455" y="-20" width="240" relative="1" as="geometry">
              <mxPoint x="1300" y="420" as="sourcePoint" />
              <mxPoint x="830" y="630" as="targetPoint" />
              <Array as="points">
                <mxPoint x="1690" y="620" />
              </Array>
              <mxPoint as="offset" />
            </mxGeometry>
          </mxCell>
        </object>
        <mxCell id="qkIq2tXFl79Hgy0URCup-29" value="" style="group" parent="1" vertex="1" connectable="0">
          <mxGeometry x="860" y="680" width="1090" height="609" as="geometry" />
        </mxCell>
        <object placeholders="1" c4Type="Relationship" c4Description="Небольшие большие данные" label="&lt;div style=&quot;text-align: left&quot;&gt;&lt;div style=&quot;text-align: center&quot;&gt;&lt;b&gt;%c4Description%&lt;/b&gt;&lt;/div&gt;" id="qkIq2tXFl79Hgy0URCup-31">
          <mxCell style="endArrow=blockThin;html=1;fontSize=10;fontColor=#404040;strokeWidth=1;endFill=1;strokeColor=#828282;elbow=vertical;metaEdit=1;endSize=14;startSize=14;jumpStyle=arc;jumpSize=16;rounded=0;edgeStyle=orthogonalEdgeStyle;" parent="qkIq2tXFl79Hgy0URCup-29" target="qkIq2tXFl79Hgy0URCup-33" edge="1">
            <mxGeometry width="240" relative="1" as="geometry">
              <mxPoint x="490.5" y="333.8624999999995" as="sourcePoint" />
              <mxPoint x="305.20000000000005" y="445.87499999999994" as="targetPoint" />
              <Array as="points">
                <mxPoint x="490.5" y="337.125" />
              </Array>
            </mxGeometry>
          </mxCell>
        </object>
        <object placeholders="1" c4Name="Головной офис" c4Type="SystemScopeBoundary" c4Application="Software System" label="&lt;font style=&quot;font-size: 16px&quot;&gt;&lt;b&gt;&lt;div style=&quot;text-align: left&quot;&gt;%c4Name%&lt;/div&gt;&lt;/b&gt;&lt;/font&gt;&lt;div style=&quot;text-align: left&quot;&gt;[%c4Application%]&lt;/div&gt;" id="qkIq2tXFl79Hgy0URCup-32">
          <mxCell style="rounded=1;fontSize=11;whiteSpace=wrap;html=1;dashed=1;arcSize=20;fillColor=none;strokeColor=#666666;fontColor=#333333;labelBackgroundColor=none;align=left;verticalAlign=bottom;labelBorderColor=none;spacingTop=0;spacing=10;dashPattern=8 4;metaEdit=1;rotatable=0;perimeter=rectanglePerimeter;noLabel=0;labelPadding=0;allowArrows=0;connectable=0;expand=0;recursiveResize=0;editable=1;pointerEvents=0;absoluteArcSize=1;points=[[0.25,0,0],[0.5,0,0],[0.75,0,0],[1,0.25,0],[1,0.5,0],[1,0.75,0],[0.75,1,0],[0.5,1,0],[0.25,1,0],[0,0.75,0],[0,0.5,0],[0,0.25,0]];" parent="qkIq2tXFl79Hgy0URCup-29" vertex="1">
            <mxGeometry width="1090" height="609" as="geometry" />
          </mxCell>
        </object>
        <object placeholders="1" c4Name="Данные для аналитики" c4Type="Software System" c4Description="Хранилище, озеро, хотя скорее, небольшой пруд с данными данной системы" label="&lt;font style=&quot;font-size: 16px&quot;&gt;&lt;b&gt;%c4Name%&lt;/b&gt;&lt;/font&gt;&lt;div&gt;[%c4Type%]&lt;/div&gt;&lt;br&gt;&lt;div&gt;&lt;font style=&quot;font-size: 11px&quot;&gt;&lt;font color=&quot;#cccccc&quot;&gt;%c4Description%&lt;/font&gt;&lt;/div&gt;" id="qkIq2tXFl79Hgy0URCup-33">
          <mxCell style="rounded=1;whiteSpace=wrap;html=1;labelBackgroundColor=none;fillColor=#1061B0;fontColor=#ffffff;align=center;arcSize=10;strokeColor=#0D5091;metaEdit=1;resizable=0;points=[[0.25,0,0],[0.5,0,0],[0.75,0,0],[1,0.25,0],[1,0.5,0],[1,0.75,0],[0.75,1,0],[0.5,1,0],[0.25,1,0],[0,0.75,0],[0,0.5,0],[0,0.25,0]];" parent="qkIq2tXFl79Hgy0URCup-29" vertex="1">
            <mxGeometry x="327" y="409.98749999999995" width="240" height="120" as="geometry" />
          </mxCell>
        </object>
        <object placeholders="1" c4Name="Данные для обучения" c4Type="Software System" c4Description="Данные выбранные из аналитики для обучения ИИ" label="&lt;font style=&quot;font-size: 16px&quot;&gt;&lt;b&gt;%c4Name%&lt;/b&gt;&lt;/font&gt;&lt;div&gt;[%c4Type%]&lt;/div&gt;&lt;br&gt;&lt;div&gt;&lt;font style=&quot;font-size: 11px&quot;&gt;&lt;font color=&quot;#cccccc&quot;&gt;%c4Description%&lt;/font&gt;&lt;/div&gt;" id="qkIq2tXFl79Hgy0URCup-34">
          <mxCell style="rounded=1;whiteSpace=wrap;html=1;labelBackgroundColor=none;fillColor=#1061B0;fontColor=#ffffff;align=center;arcSize=10;strokeColor=#0D5091;metaEdit=1;resizable=0;points=[[0.25,0,0],[0.5,0,0],[0.75,0,0],[1,0.25,0],[1,0.5,0],[1,0.75,0],[0.75,1,0],[0.5,1,0],[0.25,1,0],[0,0.75,0],[0,0.5,0],[0,0.25,0]];" parent="qkIq2tXFl79Hgy0URCup-29" vertex="1">
            <mxGeometry x="752.1" y="409.98749999999995" width="240" height="120" as="geometry" />
          </mxCell>
        </object>
        <object placeholders="1" c4Type="Relationship" c4Description="Данные для ИИ" label="&lt;div style=&quot;text-align: left&quot;&gt;&lt;div style=&quot;text-align: center&quot;&gt;&lt;b&gt;%c4Description%&lt;/b&gt;&lt;/div&gt;" id="qkIq2tXFl79Hgy0URCup-35">
          <mxCell style="endArrow=blockThin;html=1;fontSize=10;fontColor=#404040;strokeWidth=1;endFill=1;strokeColor=#828282;elbow=vertical;metaEdit=1;endSize=14;startSize=14;jumpStyle=arc;jumpSize=16;rounded=0;edgeStyle=orthogonalEdgeStyle;" parent="qkIq2tXFl79Hgy0URCup-29" source="qkIq2tXFl79Hgy0URCup-33" target="qkIq2tXFl79Hgy0URCup-34" edge="1">
            <mxGeometry width="240" relative="1" as="geometry">
              <mxPoint x="545" y="565.5" as="sourcePoint" />
              <mxPoint x="806.6" y="565.5" as="targetPoint" />
            </mxGeometry>
          </mxCell>
        </object>
        <object placeholders="1" c4Name="Аналитик" c4Type="Person" c4Description="Что-то ищет" label="&lt;font style=&quot;font-size: 16px&quot;&gt;&lt;b&gt;%c4Name%&lt;/b&gt;&lt;/font&gt;&lt;div&gt;[%c4Type%]&lt;/div&gt;&lt;br&gt;&lt;div&gt;&lt;font style=&quot;font-size: 11px&quot;&gt;&lt;font color=&quot;#cccccc&quot;&gt;%c4Description%&lt;/font&gt;&lt;/div&gt;" id="qkIq2tXFl79Hgy0URCup-36">
          <mxCell style="html=1;fontSize=11;dashed=0;whiteSpace=wrap;fillColor=#083F75;strokeColor=#06315C;fontColor=#ffffff;shape=mxgraph.c4.person2;align=center;metaEdit=1;points=[[0.5,0,0],[1,0.5,0],[1,0.75,0],[0.75,1,0],[0.5,1,0],[0.25,1,0],[0,0.75,0],[0,0.5,0]];resizable=0;" parent="qkIq2tXFl79Hgy0URCup-29" vertex="1">
            <mxGeometry x="32.7" y="257.73749999999995" width="200" height="180" as="geometry" />
          </mxCell>
        </object>
        <object placeholders="1" c4Type="Relationship" c4Description="Подготовка данных" label="&lt;div style=&quot;text-align: left&quot;&gt;&lt;div style=&quot;text-align: center&quot;&gt;&lt;b&gt;%c4Description%&lt;/b&gt;&lt;/div&gt;" id="qkIq2tXFl79Hgy0URCup-37">
          <mxCell style="endArrow=blockThin;html=1;fontSize=10;fontColor=#404040;strokeWidth=1;endFill=1;strokeColor=#828282;elbow=vertical;metaEdit=1;endSize=14;startSize=14;jumpStyle=arc;jumpSize=16;rounded=0;edgeStyle=orthogonalEdgeStyle;" parent="qkIq2tXFl79Hgy0URCup-29" source="qkIq2tXFl79Hgy0URCup-36" target="qkIq2tXFl79Hgy0URCup-33" edge="1">
            <mxGeometry x="0.1579" width="240" relative="1" as="geometry">
              <mxPoint x="545" y="500.24999999999994" as="sourcePoint" />
              <mxPoint x="806.6" y="500.24999999999994" as="targetPoint" />
              <Array as="points">
                <mxPoint x="141.7" y="326.25" />
              </Array>
              <mxPoint as="offset" />
            </mxGeometry>
          </mxCell>
        </object>
        <object placeholders="1" c4Name="Инженер обучения" c4Type="Person" c4Description="Учит" label="&lt;font style=&quot;font-size: 16px&quot;&gt;&lt;b&gt;%c4Name%&lt;/b&gt;&lt;/font&gt;&lt;div&gt;[%c4Type%]&lt;/div&gt;&lt;br&gt;&lt;div&gt;&lt;font style=&quot;font-size: 11px&quot;&gt;&lt;font color=&quot;#cccccc&quot;&gt;%c4Description%&lt;/font&gt;&lt;/div&gt;" id="qkIq2tXFl79Hgy0URCup-38">
          <mxCell style="html=1;fontSize=11;dashed=0;whiteSpace=wrap;fillColor=#083F75;strokeColor=#06315C;fontColor=#ffffff;shape=mxgraph.c4.person2;align=center;metaEdit=1;points=[[0.5,0,0],[1,0.5,0],[1,0.75,0],[0.75,1,0],[0.5,1,0],[0.25,1,0],[0,0.75,0],[0,0.5,0]];resizable=0;" parent="qkIq2tXFl79Hgy0URCup-29" vertex="1">
            <mxGeometry x="773.9" y="159.86249999999998" width="200" height="180" as="geometry" />
          </mxCell>
        </object>
        <object placeholders="1" c4Type="Relationship" c4Description="Подготовка данных" label="&lt;div style=&quot;text-align: left&quot;&gt;&lt;div style=&quot;text-align: center&quot;&gt;&lt;b&gt;%c4Description%&lt;/b&gt;&lt;/div&gt;" id="qkIq2tXFl79Hgy0URCup-39">
          <mxCell style="endArrow=blockThin;html=1;fontSize=10;fontColor=#404040;strokeWidth=1;endFill=1;strokeColor=#828282;elbow=vertical;metaEdit=1;endSize=14;startSize=14;jumpStyle=arc;jumpSize=16;rounded=0;edgeStyle=orthogonalEdgeStyle;" parent="qkIq2tXFl79Hgy0URCup-29" source="qkIq2tXFl79Hgy0URCup-38" target="qkIq2tXFl79Hgy0URCup-34" edge="1">
            <mxGeometry width="240" relative="1" as="geometry">
              <mxPoint x="152.60000000000002" y="315.375" as="sourcePoint" />
              <mxPoint x="337.9" y="337.125" as="targetPoint" />
            </mxGeometry>
          </mxCell>
        </object>
        <object placeholders="1" c4Name="Головного офиса" c4Type="Person" c4Description="Думку думает" label="&lt;font style=&quot;font-size: 16px&quot;&gt;&lt;b&gt;%c4Name%&lt;/b&gt;&lt;/font&gt;&lt;div&gt;[%c4Type%]&lt;/div&gt;&lt;br&gt;&lt;div&gt;&lt;font style=&quot;font-size: 11px&quot;&gt;&lt;font color=&quot;#cccccc&quot;&gt;%c4Description%&lt;/font&gt;&lt;/div&gt;" id="soOGA839N_4_trMZJZCc-7">
          <mxCell style="html=1;fontSize=11;dashed=0;whiteSpace=wrap;fillColor=#083F75;strokeColor=#06315C;fontColor=#ffffff;shape=mxgraph.c4.person2;align=center;metaEdit=1;points=[[0.5,0,0],[1,0.5,0],[1,0.75,0],[0.75,1,0],[0.5,1,0],[0.25,1,0],[0,0.75,0],[0,0.5,0]];resizable=0;" parent="qkIq2tXFl79Hgy0URCup-29" vertex="1">
            <mxGeometry x="32.7" y="11.962499999999999" width="200" height="180" as="geometry" />
          </mxCell>
        </object>
        <object placeholders="1" c4Type="Relationship" c4Description="Публикация данных" label="&lt;div style=&quot;text-align: left&quot;&gt;&lt;div style=&quot;text-align: center&quot;&gt;&lt;b&gt;%c4Description%&lt;/b&gt;&lt;/div&gt;" id="qkIq2tXFl79Hgy0URCup-40">
          <mxCell style="endArrow=blockThin;html=1;fontSize=10;fontColor=#404040;strokeWidth=1;endFill=1;strokeColor=#828282;elbow=vertical;metaEdit=1;endSize=14;startSize=14;jumpStyle=arc;jumpSize=16;rounded=0;edgeStyle=orthogonalEdgeStyle;" parent="1" source="qkIq2tXFl79Hgy0URCup-33" target="qkIq2tXFl79Hgy0URCup-8" edge="1">
            <mxGeometry x="-0.9412" y="-70" width="240" relative="1" as="geometry">
              <mxPoint x="1280" y="1100" as="sourcePoint" />
              <mxPoint x="810" y="1310" as="targetPoint" />
              <Array as="points">
                <mxPoint x="1250" y="1310" />
                <mxPoint x="710" y="1310" />
              </Array>
              <mxPoint as="offset" />
            </mxGeometry>
          </mxCell>
        </object>
        <object placeholders="1" c4Type="Relationship" c4Description="Запросы данных" label="&lt;div style=&quot;text-align: left&quot;&gt;&lt;div style=&quot;text-align: center&quot;&gt;&lt;b&gt;%c4Description%&lt;/b&gt;&lt;/div&gt;" id="qkIq2tXFl79Hgy0URCup-41">
          <mxCell style="endArrow=blockThin;html=1;fontSize=10;fontColor=#404040;strokeWidth=1;endFill=1;strokeColor=#828282;elbow=vertical;metaEdit=1;endSize=14;startSize=14;jumpStyle=arc;jumpSize=16;rounded=0;edgeStyle=orthogonalEdgeStyle;" parent="1" source="qkIq2tXFl79Hgy0URCup-8" target="qkIq2tXFl79Hgy0URCup-33" edge="1">
            <mxGeometry x="0.9221" y="-40" width="240" relative="1" as="geometry">
              <mxPoint x="810" y="1310" as="sourcePoint" />
              <mxPoint x="1340" y="1100" as="targetPoint" />
              <Array as="points">
                <mxPoint x="720" y="1310" />
                <mxPoint x="1320" y="1310" />
              </Array>
              <mxPoint as="offset" />
            </mxGeometry>
          </mxCell>
        </object>
        <object placeholders="1" c4Type="Relationship" c4Description="Запросы данных" label="&lt;div style=&quot;text-align: left&quot;&gt;&lt;div style=&quot;text-align: center&quot;&gt;&lt;b&gt;%c4Description%&lt;/b&gt;&lt;/div&gt;" id="qkIq2tXFl79Hgy0URCup-42">
          <mxCell style="endArrow=blockThin;html=1;fontSize=10;fontColor=#404040;strokeWidth=1;endFill=1;strokeColor=#828282;elbow=vertical;metaEdit=1;endSize=14;startSize=14;jumpStyle=arc;jumpSize=16;rounded=0;edgeStyle=orthogonalEdgeStyle;" parent="1" source="qkIq2tXFl79Hgy0URCup-8" target="qkIq2tXFl79Hgy0URCup-34" edge="1">
            <mxGeometry x="0.952" y="-50" width="240" relative="1" as="geometry">
              <mxPoint x="751" y="1360" as="sourcePoint" />
              <mxPoint x="1731" y="1090" as="targetPoint" />
              <Array as="points">
                <mxPoint x="700" y="1360" />
                <mxPoint x="1731" y="1360" />
              </Array>
              <mxPoint as="offset" />
            </mxGeometry>
          </mxCell>
        </object>
        <object placeholders="1" c4Type="Relationship" c4Description="Публикация данных" label="&lt;div style=&quot;text-align: left&quot;&gt;&lt;div style=&quot;text-align: center&quot;&gt;&lt;b&gt;%c4Description%&lt;/b&gt;&lt;/div&gt;" id="qkIq2tXFl79Hgy0URCup-43">
          <mxCell style="endArrow=blockThin;html=1;fontSize=10;fontColor=#404040;strokeWidth=1;endFill=1;strokeColor=#828282;elbow=vertical;metaEdit=1;endSize=14;startSize=14;jumpStyle=arc;jumpSize=16;rounded=0;edgeStyle=orthogonalEdgeStyle;" parent="1" source="qkIq2tXFl79Hgy0URCup-34" target="qkIq2tXFl79Hgy0URCup-8" edge="1">
            <mxGeometry x="-0.9455" y="-20" width="240" relative="1" as="geometry">
              <mxPoint x="1641" y="1090" as="sourcePoint" />
              <mxPoint x="791" y="1360" as="targetPoint" />
              <Array as="points">
                <mxPoint x="1641" y="1360" />
                <mxPoint x="690" y="1360" />
              </Array>
              <mxPoint as="offset" />
            </mxGeometry>
          </mxCell>
        </object>
        <object placeholders="1" c4Type="Relationship" c4Description="Публикация данных" label="&lt;div style=&quot;text-align: left&quot;&gt;&lt;div style=&quot;text-align: center&quot;&gt;&lt;b&gt;%c4Description%&lt;/b&gt;&lt;/div&gt;" id="qkIq2tXFl79Hgy0URCup-55">
          <mxCell style="endArrow=blockThin;html=1;fontSize=10;fontColor=#404040;strokeWidth=1;endFill=1;strokeColor=#828282;elbow=vertical;metaEdit=1;endSize=14;startSize=14;jumpStyle=arc;jumpSize=16;rounded=0;edgeStyle=orthogonalEdgeStyle;" parent="1" source="qkIq2tXFl79Hgy0URCup-49" target="qkIq2tXFl79Hgy0URCup-8" edge="1">
            <mxGeometry x="-0.9412" y="-70" width="240" relative="1" as="geometry">
              <mxPoint x="360" y="1099" as="sourcePoint" />
              <mxPoint x="-190" y="710" as="targetPoint" />
              <Array as="points">
                <mxPoint x="360" y="1310" />
                <mxPoint x="650" y="1310" />
              </Array>
              <mxPoint as="offset" />
            </mxGeometry>
          </mxCell>
        </object>
        <object placeholders="1" c4Type="Relationship" c4Description="Запросы данных" label="&lt;div style=&quot;text-align: left&quot;&gt;&lt;div style=&quot;text-align: center&quot;&gt;&lt;b&gt;%c4Description%&lt;/b&gt;&lt;/div&gt;" id="qkIq2tXFl79Hgy0URCup-56">
          <mxCell style="endArrow=blockThin;html=1;fontSize=10;fontColor=#404040;strokeWidth=1;endFill=1;strokeColor=#828282;elbow=vertical;metaEdit=1;endSize=14;startSize=14;jumpStyle=arc;jumpSize=16;rounded=0;edgeStyle=orthogonalEdgeStyle;" parent="1" source="qkIq2tXFl79Hgy0URCup-8" target="qkIq2tXFl79Hgy0URCup-49" edge="1">
            <mxGeometry x="0.9221" y="-40" width="240" relative="1" as="geometry">
              <mxPoint x="-190" y="710" as="sourcePoint" />
              <mxPoint x="430" y="1099" as="targetPoint" />
              <Array as="points">
                <mxPoint x="660" y="1310" />
                <mxPoint x="430" y="1310" />
              </Array>
              <mxPoint as="offset" />
            </mxGeometry>
          </mxCell>
        </object>
        <object placeholders="1" c4Type="Relationship" c4Description="Запросы данных" label="&lt;div style=&quot;text-align: left&quot;&gt;&lt;div style=&quot;text-align: center&quot;&gt;&lt;b&gt;%c4Description%&lt;/b&gt;&lt;/div&gt;" id="qkIq2tXFl79Hgy0URCup-57">
          <mxCell style="endArrow=blockThin;html=1;fontSize=10;fontColor=#404040;strokeWidth=1;endFill=1;strokeColor=#828282;elbow=vertical;metaEdit=1;endSize=14;startSize=14;jumpStyle=arc;jumpSize=16;rounded=0;edgeStyle=orthogonalEdgeStyle;" parent="1" source="qkIq2tXFl79Hgy0URCup-8" target="qkIq2tXFl79Hgy0URCup-48" edge="1">
            <mxGeometry x="0.952" y="-50" width="240" relative="1" as="geometry">
              <mxPoint x="-990" y="710" as="sourcePoint" />
              <mxPoint x="41" y="1099" as="targetPoint" />
              <Array as="points">
                <mxPoint x="680" y="1360" />
                <mxPoint x="41" y="1360" />
              </Array>
              <mxPoint as="offset" />
            </mxGeometry>
          </mxCell>
        </object>
        <object placeholders="1" c4Type="Relationship" c4Description="Публикация данных" label="&lt;div style=&quot;text-align: left&quot;&gt;&lt;div style=&quot;text-align: center&quot;&gt;&lt;b&gt;%c4Description%&lt;/b&gt;&lt;/div&gt;" id="qkIq2tXFl79Hgy0URCup-58">
          <mxCell style="endArrow=blockThin;html=1;fontSize=10;fontColor=#404040;strokeWidth=1;endFill=1;strokeColor=#828282;elbow=vertical;metaEdit=1;endSize=14;startSize=14;jumpStyle=arc;jumpSize=16;rounded=0;edgeStyle=orthogonalEdgeStyle;" parent="1" source="qkIq2tXFl79Hgy0URCup-48" target="qkIq2tXFl79Hgy0URCup-8" edge="1">
            <mxGeometry x="-0.9455" y="-20" width="240" relative="1" as="geometry">
              <mxPoint x="-49" y="1099" as="sourcePoint" />
              <mxPoint x="-990" y="710" as="targetPoint" />
              <Array as="points">
                <mxPoint x="-49" y="1360" />
                <mxPoint x="670" y="1360" />
              </Array>
              <mxPoint as="offset" />
            </mxGeometry>
          </mxCell>
        </object>
        <mxCell id="qkIq2tXFl79Hgy0URCup-59" value="" style="group" parent="1" vertex="1" connectable="0">
          <mxGeometry x="-173" y="1480" width="1660" height="440" as="geometry" />
        </mxCell>
        <object placeholders="1" c4Name="Фарм.Компания" c4Type="SystemScopeBoundary" c4Application="Software System" label="&lt;font style=&quot;font-size: 16px&quot;&gt;&lt;b&gt;&lt;div style=&quot;text-align: left&quot;&gt;%c4Name%&lt;/div&gt;&lt;/b&gt;&lt;/font&gt;&lt;div style=&quot;text-align: left&quot;&gt;[%c4Application%]&lt;/div&gt;" id="qkIq2tXFl79Hgy0URCup-62">
          <mxCell style="rounded=1;fontSize=11;whiteSpace=wrap;html=1;dashed=1;arcSize=20;fillColor=none;strokeColor=#666666;fontColor=#333333;labelBackgroundColor=none;align=left;verticalAlign=bottom;labelBorderColor=none;spacingTop=0;spacing=10;dashPattern=8 4;metaEdit=1;rotatable=0;perimeter=rectanglePerimeter;noLabel=0;labelPadding=0;allowArrows=0;connectable=0;expand=0;recursiveResize=0;editable=1;pointerEvents=0;absoluteArcSize=1;points=[[0.25,0,0],[0.5,0,0],[0.75,0,0],[1,0.25,0],[1,0.5,0],[1,0.75,0],[0.75,1,0],[0.5,1,0],[0.25,1,0],[0,0.75,0],[0,0.5,0],[0,0.25,0]];" parent="qkIq2tXFl79Hgy0URCup-59" vertex="1">
            <mxGeometry width="1350" height="440" as="geometry" />
          </mxCell>
        </object>
        <object placeholders="1" c4Name="Данные для аналитики" c4Type="Software System" c4Description="Хранилище, озеро, хотя скорее, небольшой пруд с данными данной системы" label="&lt;font style=&quot;font-size: 16px&quot;&gt;&lt;b&gt;%c4Name%&lt;/b&gt;&lt;/font&gt;&lt;div&gt;[%c4Type%]&lt;/div&gt;&lt;br&gt;&lt;div&gt;&lt;font style=&quot;font-size: 11px&quot;&gt;&lt;font color=&quot;#cccccc&quot;&gt;%c4Description%&lt;/font&gt;&lt;/div&gt;" id="qkIq2tXFl79Hgy0URCup-63">
          <mxCell style="rounded=1;whiteSpace=wrap;html=1;labelBackgroundColor=none;fillColor=#1061B0;fontColor=#ffffff;align=center;arcSize=10;strokeColor=#0D5091;metaEdit=1;resizable=0;points=[[0.25,0,0],[0.5,0,0],[0.75,0,0],[1,0.25,0],[1,0.5,0],[1,0.75,0],[0.75,1,0],[0.5,1,0],[0.25,1,0],[0,0.75,0],[0,0.5,0],[0,0.25,0]];" parent="qkIq2tXFl79Hgy0URCup-59" vertex="1">
            <mxGeometry x="323" y="40" width="240" height="120" as="geometry" />
          </mxCell>
        </object>
        <object placeholders="1" c4Name="Данные для обучения" c4Type="Software System" c4Description="Данные выбранные из аналитики для обучения ИИ" label="&lt;font style=&quot;font-size: 16px&quot;&gt;&lt;b&gt;%c4Name%&lt;/b&gt;&lt;/font&gt;&lt;div&gt;[%c4Type%]&lt;/div&gt;&lt;br&gt;&lt;div&gt;&lt;font style=&quot;font-size: 11px&quot;&gt;&lt;font color=&quot;#cccccc&quot;&gt;%c4Description%&lt;/font&gt;&lt;/div&gt;" id="qkIq2tXFl79Hgy0URCup-64">
          <mxCell style="rounded=1;whiteSpace=wrap;html=1;labelBackgroundColor=none;fillColor=#1061B0;fontColor=#ffffff;align=center;arcSize=10;strokeColor=#0D5091;metaEdit=1;resizable=0;points=[[0.25,0,0],[0.5,0,0],[0.75,0,0],[1,0.25,0],[1,0.5,0],[1,0.75,0],[0.75,1,0],[0.5,1,0],[0.25,1,0],[0,0.75,0],[0,0.5,0],[0,0.25,0]];" parent="qkIq2tXFl79Hgy0URCup-59" vertex="1">
            <mxGeometry x="1053" y="40" width="240" height="120" as="geometry" />
          </mxCell>
        </object>
        <object placeholders="1" c4Type="Relationship" c4Description="Данные для ИИ" label="&lt;div style=&quot;text-align: left&quot;&gt;&lt;div style=&quot;text-align: center&quot;&gt;&lt;b&gt;%c4Description%&lt;/b&gt;&lt;/div&gt;" id="qkIq2tXFl79Hgy0URCup-65">
          <mxCell style="endArrow=blockThin;html=1;fontSize=10;fontColor=#404040;strokeWidth=1;endFill=1;strokeColor=#828282;elbow=vertical;metaEdit=1;endSize=14;startSize=14;jumpStyle=arc;jumpSize=16;rounded=0;edgeStyle=orthogonalEdgeStyle;" parent="qkIq2tXFl79Hgy0URCup-59" source="qkIq2tXFl79Hgy0URCup-63" target="qkIq2tXFl79Hgy0URCup-64" edge="1">
            <mxGeometry width="240" relative="1" as="geometry">
              <mxPoint x="500" y="520" as="sourcePoint" />
              <mxPoint x="740" y="520" as="targetPoint" />
            </mxGeometry>
          </mxCell>
        </object>
        <object placeholders="1" c4Name="Аналитик" c4Type="Person" c4Description="Что-то ищет" label="&lt;font style=&quot;font-size: 16px&quot;&gt;&lt;b&gt;%c4Name%&lt;/b&gt;&lt;/font&gt;&lt;div&gt;[%c4Type%]&lt;/div&gt;&lt;br&gt;&lt;div&gt;&lt;font style=&quot;font-size: 11px&quot;&gt;&lt;font color=&quot;#cccccc&quot;&gt;%c4Description%&lt;/font&gt;&lt;/div&gt;" id="qkIq2tXFl79Hgy0URCup-66">
          <mxCell style="html=1;fontSize=11;dashed=0;whiteSpace=wrap;fillColor=#083F75;strokeColor=#06315C;fontColor=#ffffff;shape=mxgraph.c4.person2;align=center;metaEdit=1;points=[[0.5,0,0],[1,0.5,0],[1,0.75,0],[0.75,1,0],[0.5,1,0],[0.25,1,0],[0,0.75,0],[0,0.5,0]];resizable=0;" parent="qkIq2tXFl79Hgy0URCup-59" vertex="1">
            <mxGeometry x="30" y="20" width="200" height="180" as="geometry" />
          </mxCell>
        </object>
        <object placeholders="1" c4Type="Relationship" c4Description="Подготовка данных" label="&lt;div style=&quot;text-align: left&quot;&gt;&lt;div style=&quot;text-align: center&quot;&gt;&lt;b&gt;%c4Description%&lt;/b&gt;&lt;/div&gt;" id="qkIq2tXFl79Hgy0URCup-67">
          <mxCell style="endArrow=blockThin;html=1;fontSize=10;fontColor=#404040;strokeWidth=1;endFill=1;strokeColor=#828282;elbow=vertical;metaEdit=1;endSize=14;startSize=14;jumpStyle=arc;jumpSize=16;rounded=0;edgeStyle=orthogonalEdgeStyle;" parent="qkIq2tXFl79Hgy0URCup-59" source="qkIq2tXFl79Hgy0URCup-66" target="qkIq2tXFl79Hgy0URCup-63" edge="1">
            <mxGeometry x="0.1579" width="240" relative="1" as="geometry">
              <mxPoint x="500" y="460" as="sourcePoint" />
              <mxPoint x="740" y="460" as="targetPoint" />
              <Array as="points">
                <mxPoint x="130" y="60" />
              </Array>
              <mxPoint as="offset" />
            </mxGeometry>
          </mxCell>
        </object>
        <object placeholders="1" c4Name="Инженер обучения" c4Type="Person" c4Description="Учит" label="&lt;font style=&quot;font-size: 16px&quot;&gt;&lt;b&gt;%c4Name%&lt;/b&gt;&lt;/font&gt;&lt;div&gt;[%c4Type%]&lt;/div&gt;&lt;br&gt;&lt;div&gt;&lt;font style=&quot;font-size: 11px&quot;&gt;&lt;font color=&quot;#cccccc&quot;&gt;%c4Description%&lt;/font&gt;&lt;/div&gt;" id="qkIq2tXFl79Hgy0URCup-68">
          <mxCell style="html=1;fontSize=11;dashed=0;whiteSpace=wrap;fillColor=#083F75;strokeColor=#06315C;fontColor=#ffffff;shape=mxgraph.c4.person2;align=center;metaEdit=1;points=[[0.5,0,0],[1,0.5,0],[1,0.75,0],[0.75,1,0],[0.5,1,0],[0.25,1,0],[0,0.75,0],[0,0.5,0]];resizable=0;" parent="qkIq2tXFl79Hgy0URCup-59" vertex="1">
            <mxGeometry x="710" y="10" width="200" height="180" as="geometry" />
          </mxCell>
        </object>
        <object placeholders="1" c4Type="Relationship" c4Description="Подготовка данных" label="&lt;div style=&quot;text-align: left&quot;&gt;&lt;div style=&quot;text-align: center&quot;&gt;&lt;b&gt;%c4Description%&lt;/b&gt;&lt;/div&gt;" id="qkIq2tXFl79Hgy0URCup-69">
          <mxCell style="endArrow=blockThin;html=1;fontSize=10;fontColor=#404040;strokeWidth=1;endFill=1;strokeColor=#828282;elbow=vertical;metaEdit=1;endSize=14;startSize=14;jumpStyle=arc;jumpSize=16;rounded=0;edgeStyle=orthogonalEdgeStyle;" parent="qkIq2tXFl79Hgy0URCup-59" source="qkIq2tXFl79Hgy0URCup-68" target="qkIq2tXFl79Hgy0URCup-64" edge="1">
            <mxGeometry width="240" relative="1" as="geometry">
              <mxPoint x="140" y="290" as="sourcePoint" />
              <mxPoint x="310" y="310" as="targetPoint" />
            </mxGeometry>
          </mxCell>
        </object>
        <object placeholders="1" c4Name="Фарм.компания" c4Type="External System" c4Description="Тут работает мистер Уайт" label="&lt;font style=&quot;font-size: 16px&quot;&gt;&lt;b&gt;%c4Name%&lt;/b&gt;&lt;/font&gt;&lt;div&gt;[%c4Type%]&lt;/div&gt;&lt;br&gt;&lt;div&gt;&lt;font style=&quot;font-size: 11px&quot;&gt;&lt;font color=&quot;#cccccc&quot;&gt;%c4Description%&lt;/font&gt;&lt;/div&gt;" id="qkIq2tXFl79Hgy0URCup-60">
          <mxCell style="rounded=1;whiteSpace=wrap;html=1;labelBackgroundColor=none;fillColor=#647687;fontColor=#ffffff;align=center;arcSize=10;strokeColor=#314354;metaEdit=1;resizable=0;points=[[0.25,0,0],[0.5,0,0],[0.75,0,0],[1,0.25,0],[1,0.5,0],[1,0.75,0],[0.75,1,0],[0.5,1,0],[0.25,1,0],[0,0.75,0],[0,0.5,0],[0,0.25,0]];" parent="qkIq2tXFl79Hgy0URCup-59" vertex="1">
            <mxGeometry x="333" y="290" width="240" height="120" as="geometry" />
          </mxCell>
        </object>
        <object placeholders="1" c4Type="Relationship" c4Description="Небольшие большие данные" label="&lt;div style=&quot;text-align: left&quot;&gt;&lt;div style=&quot;text-align: center&quot;&gt;&lt;b&gt;%c4Description%&lt;/b&gt;&lt;/div&gt;" id="qkIq2tXFl79Hgy0URCup-61">
          <mxCell style="endArrow=blockThin;html=1;fontSize=10;fontColor=#404040;strokeWidth=1;endFill=1;strokeColor=#828282;elbow=vertical;metaEdit=1;endSize=14;startSize=14;jumpStyle=arc;jumpSize=16;rounded=0;edgeStyle=orthogonalEdgeStyle;" parent="qkIq2tXFl79Hgy0URCup-59" source="qkIq2tXFl79Hgy0URCup-60" target="qkIq2tXFl79Hgy0URCup-63" edge="1">
            <mxGeometry width="240" relative="1" as="geometry">
              <mxPoint x="353" y="200" as="sourcePoint" />
              <mxPoint x="283" y="400" as="targetPoint" />
              <Array as="points">
                <mxPoint x="453" y="300" />
              </Array>
            </mxGeometry>
          </mxCell>
        </object>
        <object placeholders="1" c4Type="Relationship" c4Description="Публикация данных" label="&lt;div style=&quot;text-align: left&quot;&gt;&lt;div style=&quot;text-align: center&quot;&gt;&lt;b&gt;%c4Description%&lt;/b&gt;&lt;/div&gt;" id="qkIq2tXFl79Hgy0URCup-70">
          <mxCell style="endArrow=blockThin;html=1;fontSize=10;fontColor=#404040;strokeWidth=1;endFill=1;strokeColor=#828282;elbow=vertical;metaEdit=1;endSize=14;startSize=14;jumpStyle=arc;jumpSize=16;rounded=0;edgeStyle=orthogonalEdgeStyle;" parent="1" source="qkIq2tXFl79Hgy0URCup-63" target="qkIq2tXFl79Hgy0URCup-8" edge="1">
            <mxGeometry x="-0.9019" y="40" width="240" relative="1" as="geometry">
              <mxPoint x="-39" y="1109" as="sourcePoint" />
              <mxPoint x="680" y="710" as="targetPoint" />
              <Array as="points">
                <mxPoint x="210" y="1460" />
                <mxPoint x="-470" y="1460" />
                <mxPoint x="-470" y="630" />
              </Array>
              <mxPoint as="offset" />
            </mxGeometry>
          </mxCell>
        </object>
        <object placeholders="1" c4Type="Relationship" c4Description="Публикация данных" label="&lt;div style=&quot;text-align: left&quot;&gt;&lt;div style=&quot;text-align: center&quot;&gt;&lt;b&gt;%c4Description%&lt;/b&gt;&lt;/div&gt;" id="qkIq2tXFl79Hgy0URCup-71">
          <mxCell style="endArrow=blockThin;html=1;fontSize=10;fontColor=#404040;strokeWidth=1;endFill=1;strokeColor=#828282;elbow=vertical;metaEdit=1;endSize=14;startSize=14;jumpStyle=arc;jumpSize=16;rounded=0;edgeStyle=orthogonalEdgeStyle;" parent="1" source="qkIq2tXFl79Hgy0URCup-64" target="qkIq2tXFl79Hgy0URCup-8" edge="1">
            <mxGeometry x="-0.9157" y="60" width="240" relative="1" as="geometry">
              <mxPoint x="280" y="1530" as="sourcePoint" />
              <mxPoint x="590" y="650" as="targetPoint" />
              <Array as="points">
                <mxPoint x="960" y="1440" />
                <mxPoint x="-450" y="1440" />
                <mxPoint x="-450" y="650" />
              </Array>
              <mxPoint as="offset" />
            </mxGeometry>
          </mxCell>
        </object>
        <object placeholders="1" c4Type="Relationship" c4Description="Запросы данных" label="&lt;div style=&quot;text-align: left&quot;&gt;&lt;div style=&quot;text-align: center&quot;&gt;&lt;b&gt;%c4Description%&lt;/b&gt;&lt;/div&gt;" id="qkIq2tXFl79Hgy0URCup-72">
          <mxCell style="endArrow=blockThin;html=1;fontSize=10;fontColor=#404040;strokeWidth=1;endFill=1;strokeColor=#828282;elbow=vertical;metaEdit=1;endSize=14;startSize=14;jumpStyle=arc;jumpSize=16;rounded=0;edgeStyle=orthogonalEdgeStyle;" parent="1" source="qkIq2tXFl79Hgy0URCup-8" target="qkIq2tXFl79Hgy0URCup-63" edge="1">
            <mxGeometry x="0.952" y="-50" width="240" relative="1" as="geometry">
              <mxPoint x="690" y="710" as="sourcePoint" />
              <mxPoint x="51" y="1109" as="targetPoint" />
              <Array as="points">
                <mxPoint x="-460" y="640" />
                <mxPoint x="-460" y="1450" />
                <mxPoint x="320" y="1450" />
              </Array>
              <mxPoint as="offset" />
            </mxGeometry>
          </mxCell>
        </object>
        <object placeholders="1" c4Type="Relationship" c4Description="Запросы данных" label="&lt;div style=&quot;text-align: left&quot;&gt;&lt;div style=&quot;text-align: center&quot;&gt;&lt;b&gt;%c4Description%&lt;/b&gt;&lt;/div&gt;" id="qkIq2tXFl79Hgy0URCup-73">
          <mxCell style="endArrow=blockThin;html=1;fontSize=10;fontColor=#404040;strokeWidth=1;endFill=1;strokeColor=#828282;elbow=vertical;metaEdit=1;endSize=14;startSize=14;jumpStyle=arc;jumpSize=16;rounded=0;edgeStyle=orthogonalEdgeStyle;" parent="1" source="qkIq2tXFl79Hgy0URCup-8" target="qkIq2tXFl79Hgy0URCup-64" edge="1">
            <mxGeometry x="0.9881" y="50" width="240" relative="1" as="geometry">
              <mxPoint x="590" y="650" as="sourcePoint" />
              <mxPoint x="330" y="1530" as="targetPoint" />
              <Array as="points">
                <mxPoint x="-440" y="660" />
                <mxPoint x="-440" y="1430" />
                <mxPoint x="1050" y="1430" />
              </Array>
              <mxPoint as="offset" />
            </mxGeometry>
          </mxCell>
        </object>
        <mxCell id="qkIq2tXFl79Hgy0URCup-74" value="" style="group" parent="1" vertex="1" connectable="0">
          <mxGeometry x="1320" y="1480" width="1660" height="440" as="geometry" />
        </mxCell>
        <object placeholders="1" c4Name="Производитель оборудования" c4Type="SystemScopeBoundary" c4Application="Тут работает проффэссор Савельев" label="&lt;font style=&quot;font-size: 16px&quot;&gt;&lt;b&gt;&lt;div style=&quot;text-align: left&quot;&gt;%c4Name%&lt;/div&gt;&lt;/b&gt;&lt;/font&gt;&lt;div style=&quot;text-align: left&quot;&gt;[%c4Application%]&lt;/div&gt;" id="qkIq2tXFl79Hgy0URCup-75">
          <mxCell style="rounded=1;fontSize=11;whiteSpace=wrap;html=1;dashed=1;arcSize=20;fillColor=none;strokeColor=#666666;fontColor=#333333;labelBackgroundColor=none;align=left;verticalAlign=bottom;labelBorderColor=none;spacingTop=0;spacing=10;dashPattern=8 4;metaEdit=1;rotatable=0;perimeter=rectanglePerimeter;noLabel=0;labelPadding=0;allowArrows=0;connectable=0;expand=0;recursiveResize=0;editable=1;pointerEvents=0;absoluteArcSize=1;points=[[0.25,0,0],[0.5,0,0],[0.75,0,0],[1,0.25,0],[1,0.5,0],[1,0.75,0],[0.75,1,0],[0.5,1,0],[0.25,1,0],[0,0.75,0],[0,0.5,0],[0,0.25,0]];" parent="qkIq2tXFl79Hgy0URCup-74" vertex="1">
            <mxGeometry width="1350" height="440" as="geometry" />
          </mxCell>
        </object>
        <object placeholders="1" c4Name="Данные для аналитики" c4Type="Software System" c4Description="Хранилище, озеро, хотя скорее, небольшой пруд с данными данной системы" label="&lt;font style=&quot;font-size: 16px&quot;&gt;&lt;b&gt;%c4Name%&lt;/b&gt;&lt;/font&gt;&lt;div&gt;[%c4Type%]&lt;/div&gt;&lt;br&gt;&lt;div&gt;&lt;font style=&quot;font-size: 11px&quot;&gt;&lt;font color=&quot;#cccccc&quot;&gt;%c4Description%&lt;/font&gt;&lt;/div&gt;" id="qkIq2tXFl79Hgy0URCup-76">
          <mxCell style="rounded=1;whiteSpace=wrap;html=1;labelBackgroundColor=none;fillColor=#1061B0;fontColor=#ffffff;align=center;arcSize=10;strokeColor=#0D5091;metaEdit=1;resizable=0;points=[[0.25,0,0],[0.5,0,0],[0.75,0,0],[1,0.25,0],[1,0.5,0],[1,0.75,0],[0.75,1,0],[0.5,1,0],[0.25,1,0],[0,0.75,0],[0,0.5,0],[0,0.25,0]];" parent="qkIq2tXFl79Hgy0URCup-74" vertex="1">
            <mxGeometry x="323" y="40" width="240" height="120" as="geometry" />
          </mxCell>
        </object>
        <object placeholders="1" c4Name="Данные для обучения" c4Type="Software System" c4Description="Данные выбранные из аналитики для обучения ИИ" label="&lt;font style=&quot;font-size: 16px&quot;&gt;&lt;b&gt;%c4Name%&lt;/b&gt;&lt;/font&gt;&lt;div&gt;[%c4Type%]&lt;/div&gt;&lt;br&gt;&lt;div&gt;&lt;font style=&quot;font-size: 11px&quot;&gt;&lt;font color=&quot;#cccccc&quot;&gt;%c4Description%&lt;/font&gt;&lt;/div&gt;" id="qkIq2tXFl79Hgy0URCup-77">
          <mxCell style="rounded=1;whiteSpace=wrap;html=1;labelBackgroundColor=none;fillColor=#1061B0;fontColor=#ffffff;align=center;arcSize=10;strokeColor=#0D5091;metaEdit=1;resizable=0;points=[[0.25,0,0],[0.5,0,0],[0.75,0,0],[1,0.25,0],[1,0.5,0],[1,0.75,0],[0.75,1,0],[0.5,1,0],[0.25,1,0],[0,0.75,0],[0,0.5,0],[0,0.25,0]];" parent="qkIq2tXFl79Hgy0URCup-74" vertex="1">
            <mxGeometry x="1053" y="40" width="240" height="120" as="geometry" />
          </mxCell>
        </object>
        <object placeholders="1" c4Type="Relationship" c4Description="Данные для ИИ" label="&lt;div style=&quot;text-align: left&quot;&gt;&lt;div style=&quot;text-align: center&quot;&gt;&lt;b&gt;%c4Description%&lt;/b&gt;&lt;/div&gt;" id="qkIq2tXFl79Hgy0URCup-78">
          <mxCell style="endArrow=blockThin;html=1;fontSize=10;fontColor=#404040;strokeWidth=1;endFill=1;strokeColor=#828282;elbow=vertical;metaEdit=1;endSize=14;startSize=14;jumpStyle=arc;jumpSize=16;rounded=0;edgeStyle=orthogonalEdgeStyle;" parent="qkIq2tXFl79Hgy0URCup-74" source="qkIq2tXFl79Hgy0URCup-76" target="qkIq2tXFl79Hgy0URCup-77" edge="1">
            <mxGeometry width="240" relative="1" as="geometry">
              <mxPoint x="500" y="520" as="sourcePoint" />
              <mxPoint x="740" y="520" as="targetPoint" />
            </mxGeometry>
          </mxCell>
        </object>
        <object placeholders="1" c4Name="Аналитик" c4Type="Person" c4Description="Что-то ищет" label="&lt;font style=&quot;font-size: 16px&quot;&gt;&lt;b&gt;%c4Name%&lt;/b&gt;&lt;/font&gt;&lt;div&gt;[%c4Type%]&lt;/div&gt;&lt;br&gt;&lt;div&gt;&lt;font style=&quot;font-size: 11px&quot;&gt;&lt;font color=&quot;#cccccc&quot;&gt;%c4Description%&lt;/font&gt;&lt;/div&gt;" id="qkIq2tXFl79Hgy0URCup-79">
          <mxCell style="html=1;fontSize=11;dashed=0;whiteSpace=wrap;fillColor=#083F75;strokeColor=#06315C;fontColor=#ffffff;shape=mxgraph.c4.person2;align=center;metaEdit=1;points=[[0.5,0,0],[1,0.5,0],[1,0.75,0],[0.75,1,0],[0.5,1,0],[0.25,1,0],[0,0.75,0],[0,0.5,0]];resizable=0;" parent="qkIq2tXFl79Hgy0URCup-74" vertex="1">
            <mxGeometry x="30" y="20" width="200" height="180" as="geometry" />
          </mxCell>
        </object>
        <object placeholders="1" c4Type="Relationship" c4Description="Подготовка данных" label="&lt;div style=&quot;text-align: left&quot;&gt;&lt;div style=&quot;text-align: center&quot;&gt;&lt;b&gt;%c4Description%&lt;/b&gt;&lt;/div&gt;" id="qkIq2tXFl79Hgy0URCup-80">
          <mxCell style="endArrow=blockThin;html=1;fontSize=10;fontColor=#404040;strokeWidth=1;endFill=1;strokeColor=#828282;elbow=vertical;metaEdit=1;endSize=14;startSize=14;jumpStyle=arc;jumpSize=16;rounded=0;edgeStyle=orthogonalEdgeStyle;" parent="qkIq2tXFl79Hgy0URCup-74" source="qkIq2tXFl79Hgy0URCup-79" target="qkIq2tXFl79Hgy0URCup-76" edge="1">
            <mxGeometry x="0.1579" width="240" relative="1" as="geometry">
              <mxPoint x="500" y="460" as="sourcePoint" />
              <mxPoint x="740" y="460" as="targetPoint" />
              <Array as="points">
                <mxPoint x="130" y="60" />
              </Array>
              <mxPoint as="offset" />
            </mxGeometry>
          </mxCell>
        </object>
        <object placeholders="1" c4Name="Инженер обучения" c4Type="Person" c4Description="Учит" label="&lt;font style=&quot;font-size: 16px&quot;&gt;&lt;b&gt;%c4Name%&lt;/b&gt;&lt;/font&gt;&lt;div&gt;[%c4Type%]&lt;/div&gt;&lt;br&gt;&lt;div&gt;&lt;font style=&quot;font-size: 11px&quot;&gt;&lt;font color=&quot;#cccccc&quot;&gt;%c4Description%&lt;/font&gt;&lt;/div&gt;" id="qkIq2tXFl79Hgy0URCup-81">
          <mxCell style="html=1;fontSize=11;dashed=0;whiteSpace=wrap;fillColor=#083F75;strokeColor=#06315C;fontColor=#ffffff;shape=mxgraph.c4.person2;align=center;metaEdit=1;points=[[0.5,0,0],[1,0.5,0],[1,0.75,0],[0.75,1,0],[0.5,1,0],[0.25,1,0],[0,0.75,0],[0,0.5,0]];resizable=0;" parent="qkIq2tXFl79Hgy0URCup-74" vertex="1">
            <mxGeometry x="710" y="10" width="200" height="180" as="geometry" />
          </mxCell>
        </object>
        <object placeholders="1" c4Type="Relationship" c4Description="Подготовка данных" label="&lt;div style=&quot;text-align: left&quot;&gt;&lt;div style=&quot;text-align: center&quot;&gt;&lt;b&gt;%c4Description%&lt;/b&gt;&lt;/div&gt;" id="qkIq2tXFl79Hgy0URCup-82">
          <mxCell style="endArrow=blockThin;html=1;fontSize=10;fontColor=#404040;strokeWidth=1;endFill=1;strokeColor=#828282;elbow=vertical;metaEdit=1;endSize=14;startSize=14;jumpStyle=arc;jumpSize=16;rounded=0;edgeStyle=orthogonalEdgeStyle;" parent="qkIq2tXFl79Hgy0URCup-74" source="qkIq2tXFl79Hgy0URCup-81" target="qkIq2tXFl79Hgy0URCup-77" edge="1">
            <mxGeometry width="240" relative="1" as="geometry">
              <mxPoint x="140" y="290" as="sourcePoint" />
              <mxPoint x="310" y="310" as="targetPoint" />
            </mxGeometry>
          </mxCell>
        </object>
        <object placeholders="1" c4Name="Производитель оборудования" c4Type="External System" c4Description="Тут работает мистер Уайт" label="&lt;font style=&quot;font-size: 16px&quot;&gt;&lt;b&gt;%c4Name%&lt;/b&gt;&lt;/font&gt;&lt;div&gt;[%c4Type%]&lt;/div&gt;&lt;br&gt;&lt;div&gt;&lt;font style=&quot;font-size: 11px&quot;&gt;&lt;font color=&quot;#cccccc&quot;&gt;%c4Description%&lt;/font&gt;&lt;/div&gt;" id="qkIq2tXFl79Hgy0URCup-83">
          <mxCell style="rounded=1;whiteSpace=wrap;html=1;labelBackgroundColor=none;fillColor=#647687;fontColor=#ffffff;align=center;arcSize=10;strokeColor=#314354;metaEdit=1;resizable=0;points=[[0.25,0,0],[0.5,0,0],[0.75,0,0],[1,0.25,0],[1,0.5,0],[1,0.75,0],[0.75,1,0],[0.5,1,0],[0.25,1,0],[0,0.75,0],[0,0.5,0],[0,0.25,0]];" parent="qkIq2tXFl79Hgy0URCup-74" vertex="1">
            <mxGeometry x="333" y="290" width="240" height="120" as="geometry" />
          </mxCell>
        </object>
        <object placeholders="1" c4Type="Relationship" c4Description="Небольшие большие данные" label="&lt;div style=&quot;text-align: left&quot;&gt;&lt;div style=&quot;text-align: center&quot;&gt;&lt;b&gt;%c4Description%&lt;/b&gt;&lt;/div&gt;" id="qkIq2tXFl79Hgy0URCup-84">
          <mxCell style="endArrow=blockThin;html=1;fontSize=10;fontColor=#404040;strokeWidth=1;endFill=1;strokeColor=#828282;elbow=vertical;metaEdit=1;endSize=14;startSize=14;jumpStyle=arc;jumpSize=16;rounded=0;edgeStyle=orthogonalEdgeStyle;" parent="qkIq2tXFl79Hgy0URCup-74" source="qkIq2tXFl79Hgy0URCup-83" target="qkIq2tXFl79Hgy0URCup-76" edge="1">
            <mxGeometry width="240" relative="1" as="geometry">
              <mxPoint x="353" y="200" as="sourcePoint" />
              <mxPoint x="283" y="400" as="targetPoint" />
              <Array as="points">
                <mxPoint x="453" y="300" />
              </Array>
            </mxGeometry>
          </mxCell>
        </object>
        <object placeholders="1" c4Type="Relationship" c4Description="Запросы данных" label="&lt;div style=&quot;text-align: left&quot;&gt;&lt;div style=&quot;text-align: center&quot;&gt;&lt;b&gt;%c4Description%&lt;/b&gt;&lt;/div&gt;" id="qkIq2tXFl79Hgy0URCup-85">
          <mxCell style="endArrow=blockThin;html=1;fontSize=10;fontColor=#404040;strokeWidth=1;endFill=1;strokeColor=#828282;elbow=vertical;metaEdit=1;endSize=14;startSize=14;jumpStyle=arc;jumpSize=16;rounded=0;edgeStyle=orthogonalEdgeStyle;" parent="1" source="qkIq2tXFl79Hgy0URCup-8" target="qkIq2tXFl79Hgy0URCup-77" edge="1">
            <mxGeometry x="0.952" y="-50" width="240" relative="1" as="geometry">
              <mxPoint x="710" y="710" as="sourcePoint" />
              <mxPoint x="1741" y="1099" as="targetPoint" />
              <Array as="points">
                <mxPoint x="2560" y="640" />
              </Array>
              <mxPoint as="offset" />
            </mxGeometry>
          </mxCell>
        </object>
        <object placeholders="1" c4Type="Relationship" c4Description="Публикация данных" label="&lt;div style=&quot;text-align: left&quot;&gt;&lt;div style=&quot;text-align: center&quot;&gt;&lt;b&gt;%c4Description%&lt;/b&gt;&lt;/div&gt;" id="qkIq2tXFl79Hgy0URCup-86">
          <mxCell style="endArrow=blockThin;html=1;fontSize=10;fontColor=#404040;strokeWidth=1;endFill=1;strokeColor=#828282;elbow=vertical;metaEdit=1;endSize=14;startSize=14;jumpStyle=arc;jumpSize=16;rounded=0;edgeStyle=orthogonalEdgeStyle;" parent="1" source="qkIq2tXFl79Hgy0URCup-77" target="qkIq2tXFl79Hgy0URCup-8" edge="1">
            <mxGeometry x="-0.9522" y="70" width="240" relative="1" as="geometry">
              <mxPoint x="1651" y="1099" as="sourcePoint" />
              <mxPoint x="700" y="710" as="targetPoint" />
              <Array as="points">
                <mxPoint x="2460" y="650" />
              </Array>
              <mxPoint as="offset" />
            </mxGeometry>
          </mxCell>
        </object>
        <object placeholders="1" c4Type="Relationship" c4Description="Публикация данных" label="&lt;div style=&quot;text-align: left&quot;&gt;&lt;div style=&quot;text-align: center&quot;&gt;&lt;b&gt;%c4Description%&lt;/b&gt;&lt;/div&gt;" id="qkIq2tXFl79Hgy0URCup-87">
          <mxCell style="endArrow=blockThin;html=1;fontSize=10;fontColor=#404040;strokeWidth=1;endFill=1;strokeColor=#828282;elbow=vertical;metaEdit=1;endSize=14;startSize=14;jumpStyle=arc;jumpSize=16;rounded=0;edgeStyle=orthogonalEdgeStyle;" parent="1" source="qkIq2tXFl79Hgy0URCup-76" target="qkIq2tXFl79Hgy0URCup-8" edge="1">
            <mxGeometry x="-0.9522" y="70" width="240" relative="1" as="geometry">
              <mxPoint x="2470" y="1530" as="sourcePoint" />
              <mxPoint x="830" y="660" as="targetPoint" />
              <Array as="points">
                <mxPoint x="1710" y="1380" />
                <mxPoint x="1970" y="1380" />
                <mxPoint x="1970" y="670" />
              </Array>
              <mxPoint as="offset" />
            </mxGeometry>
          </mxCell>
        </object>
        <object placeholders="1" c4Type="Relationship" c4Description="Запросы данных" label="&lt;div style=&quot;text-align: left&quot;&gt;&lt;div style=&quot;text-align: center&quot;&gt;&lt;b&gt;%c4Description%&lt;/b&gt;&lt;/div&gt;" id="qkIq2tXFl79Hgy0URCup-88">
          <mxCell style="endArrow=blockThin;html=1;fontSize=10;fontColor=#404040;strokeWidth=1;endFill=1;strokeColor=#828282;elbow=vertical;metaEdit=1;endSize=14;startSize=14;jumpStyle=arc;jumpSize=16;rounded=0;edgeStyle=orthogonalEdgeStyle;" parent="1" source="qkIq2tXFl79Hgy0URCup-8" target="qkIq2tXFl79Hgy0URCup-76" edge="1">
            <mxGeometry x="0.952" y="-50" width="240" relative="1" as="geometry">
              <mxPoint x="830" y="650" as="sourcePoint" />
              <mxPoint x="2570" y="1530" as="targetPoint" />
              <Array as="points">
                <mxPoint x="1980" y="660" />
                <mxPoint x="1980" y="1390" />
                <mxPoint x="1830" y="1390" />
              </Array>
              <mxPoint as="offset" />
            </mxGeometry>
          </mxCell>
        </object>
        <UserObject label="https://learn.microsoft.com/ru-ru/azure/cloud-adoption-framework/scenarios/cloud-scale-analytics/architectures/operationalize-data-mesh-for-ai-ml" link="https://learn.microsoft.com/ru-ru/azure/cloud-adoption-framework/scenarios/cloud-scale-analytics/architectures/operationalize-data-mesh-for-ai-ml" id="qkIq2tXFl79Hgy0URCup-89">
          <mxCell style="text;whiteSpace=wrap;" parent="1" vertex="1">
            <mxGeometry x="-360" y="2190" width="560" height="50" as="geometry" />
          </mxCell>
        </UserObject>
        <object placeholders="1" c4Type="Relationship" c4Description="Запрос консультаций к ИИ" label="&lt;div style=&quot;text-align: left&quot;&gt;&lt;div style=&quot;text-align: center&quot;&gt;&lt;b&gt;%c4Description%&lt;/b&gt;&lt;/div&gt;" id="soOGA839N_4_trMZJZCc-1">
          <mxCell style="endArrow=blockThin;html=1;fontSize=10;fontColor=#404040;strokeWidth=1;endFill=1;strokeColor=#828282;elbow=vertical;metaEdit=1;endSize=14;startSize=14;jumpStyle=arc;jumpSize=16;rounded=0;edgeStyle=orthogonalEdgeStyle;" parent="1" source="qkIq2tXFl79Hgy0URCup-1" target="qkIq2tXFl79Hgy0URCup-8" edge="1">
            <mxGeometry x="-0.8864" y="-40" width="240" relative="1" as="geometry">
              <mxPoint x="100" y="690" as="sourcePoint" />
              <mxPoint x="340" y="690" as="targetPoint" />
              <mxPoint as="offset" />
              <Array as="points">
                <mxPoint x="-150" y="780" />
                <mxPoint x="-150" y="670" />
              </Array>
            </mxGeometry>
          </mxCell>
        </object>
        <object placeholders="1" c4Type="Relationship" c4Description="Запрос консультаций к ИИ" label="&lt;div style=&quot;text-align: left&quot;&gt;&lt;div style=&quot;text-align: center&quot;&gt;&lt;b&gt;%c4Description%&lt;/b&gt;&lt;/div&gt;" id="soOGA839N_4_trMZJZCc-6">
          <mxCell style="endArrow=blockThin;html=1;fontSize=10;fontColor=#404040;strokeWidth=1;endFill=1;strokeColor=#828282;elbow=vertical;metaEdit=1;endSize=14;startSize=14;jumpStyle=arc;jumpSize=16;rounded=0;edgeStyle=orthogonalEdgeStyle;" parent="1" source="soOGA839N_4_trMZJZCc-3" target="qkIq2tXFl79Hgy0URCup-8" edge="1">
            <mxGeometry x="-0.7203" y="-25" width="240" relative="1" as="geometry">
              <mxPoint x="340" y="390" as="sourcePoint" />
              <mxPoint x="580" y="390" as="targetPoint" />
              <mxPoint x="25" y="-25" as="offset" />
              <Array as="points">
                <mxPoint x="800" y="-35" />
              </Array>
            </mxGeometry>
          </mxCell>
        </object>
        <object placeholders="1" c4Type="Relationship" c4Description="Публикация данных" label="&lt;div style=&quot;text-align: left&quot;&gt;&lt;div style=&quot;text-align: center&quot;&gt;&lt;b&gt;%c4Description%&lt;/b&gt;&lt;/div&gt;" id="ixkteqPNMbEx-SlJI8Yq-12">
          <mxCell style="endArrow=blockThin;html=1;fontSize=10;fontColor=#404040;strokeWidth=1;endFill=1;strokeColor=#828282;elbow=vertical;metaEdit=1;endSize=14;startSize=14;jumpStyle=arc;jumpSize=16;rounded=0;edgeStyle=orthogonalEdgeStyle;" edge="1" parent="1" source="qkIq2tXFl79Hgy0URCup-8" target="ixkteqPNMbEx-SlJI8Yq-11">
            <mxGeometry width="240" relative="1" as="geometry">
              <mxPoint x="760" y="590" as="sourcePoint" />
              <mxPoint x="760" y="-80" as="targetPoint" />
              <Array as="points">
                <mxPoint x="620" y="430" />
              </Array>
            </mxGeometry>
          </mxCell>
        </object>
        <object placeholders="1" c4Type="Relationship" c4Description="Запрос данных" label="&lt;div style=&quot;text-align: left&quot;&gt;&lt;div style=&quot;text-align: center&quot;&gt;&lt;b&gt;%c4Description%&lt;/b&gt;&lt;/div&gt;" id="ixkteqPNMbEx-SlJI8Yq-13">
          <mxCell style="endArrow=blockThin;html=1;fontSize=10;fontColor=#404040;strokeWidth=1;endFill=1;strokeColor=#828282;elbow=vertical;metaEdit=1;endSize=14;startSize=14;jumpStyle=arc;jumpSize=16;rounded=0;edgeStyle=orthogonalEdgeStyle;" edge="1" parent="1" source="ixkteqPNMbEx-SlJI8Yq-11" target="qkIq2tXFl79Hgy0URCup-8">
            <mxGeometry width="240" relative="1" as="geometry">
              <mxPoint x="730" y="-80" as="sourcePoint" />
              <mxPoint x="730" y="590" as="targetPoint" />
              <Array as="points">
                <mxPoint x="640" y="390" />
              </Array>
            </mxGeometry>
          </mxCell>
        </object>
        <object placeholders="1" c4Type="Relationship" c4Description="Работа с ИИ и аналитикой" label="&lt;div style=&quot;text-align: left&quot;&gt;&lt;div style=&quot;text-align: center&quot;&gt;&lt;b&gt;%c4Description%&lt;/b&gt;&lt;/div&gt;" id="soOGA839N_4_trMZJZCc-10">
          <mxCell style="endArrow=blockThin;html=1;fontSize=10;fontColor=#404040;strokeWidth=1;endFill=1;strokeColor=#828282;elbow=vertical;metaEdit=1;endSize=14;startSize=14;jumpStyle=arc;jumpSize=16;rounded=0;edgeStyle=orthogonalEdgeStyle;" parent="1" source="soOGA839N_4_trMZJZCc-7" target="qkIq2tXFl79Hgy0URCup-8" edge="1">
            <mxGeometry x="0.12" y="-20" width="240" relative="1" as="geometry">
              <mxPoint x="1150" y="-120" as="sourcePoint" />
              <mxPoint x="-40" y="40" as="targetPoint" />
              <Array as="points">
                <mxPoint x="790" y="830" />
              </Array>
              <mxPoint as="offset" />
            </mxGeometry>
          </mxCell>
        </object>
        <mxCell id="ixkteqPNMbEx-SlJI8Yq-18" value="" style="group" vertex="1" connectable="0" parent="1">
          <mxGeometry x="-420" y="432" width="950" height="850" as="geometry" />
        </mxCell>
        <object placeholders="1" c4Name="Клиника" c4Type="Software System" c4Description="Тут лечат" label="&lt;font style=&quot;font-size: 16px&quot;&gt;&lt;b&gt;%c4Name%&lt;/b&gt;&lt;/font&gt;&lt;div&gt;[%c4Type%]&lt;/div&gt;&lt;br&gt;&lt;div&gt;&lt;font style=&quot;font-size: 11px&quot;&gt;&lt;font color=&quot;#cccccc&quot;&gt;%c4Description%&lt;/font&gt;&lt;/div&gt;" id="qkIq2tXFl79Hgy0URCup-45">
          <mxCell style="rounded=1;whiteSpace=wrap;html=1;labelBackgroundColor=none;fillColor=#1061B0;fontColor=#ffffff;align=center;arcSize=10;strokeColor=#0D5091;metaEdit=1;resizable=0;points=[[0.25,0,0],[0.5,0,0],[0.75,0,0],[1,0.25,0],[1,0.5,0],[1,0.75,0],[0.75,1,0],[0.5,1,0],[0.25,1,0],[0,0.75,0],[0,0.5,0],[0,0.25,0]];" parent="ixkteqPNMbEx-SlJI8Yq-18" vertex="1">
            <mxGeometry x="290" y="460" width="240" height="120" as="geometry" />
          </mxCell>
        </object>
        <object placeholders="1" c4Type="Relationship" c4Description="Небольшие большие данные" label="&lt;div style=&quot;text-align: left&quot;&gt;&lt;div style=&quot;text-align: center&quot;&gt;&lt;b&gt;%c4Description%&lt;/b&gt;&lt;/div&gt;" id="qkIq2tXFl79Hgy0URCup-46">
          <mxCell style="endArrow=blockThin;html=1;fontSize=10;fontColor=#404040;strokeWidth=1;endFill=1;strokeColor=#828282;elbow=vertical;metaEdit=1;endSize=14;startSize=14;jumpStyle=arc;jumpSize=16;rounded=0;edgeStyle=orthogonalEdgeStyle;" parent="ixkteqPNMbEx-SlJI8Yq-18" source="qkIq2tXFl79Hgy0URCup-45" target="qkIq2tXFl79Hgy0URCup-48" edge="1">
            <mxGeometry width="240" relative="1" as="geometry">
              <mxPoint x="350" y="620" as="sourcePoint" />
              <mxPoint x="280" y="820" as="targetPoint" />
              <Array as="points">
                <mxPoint x="450" y="720" />
              </Array>
            </mxGeometry>
          </mxCell>
        </object>
        <object placeholders="1" c4Name="Клиника" c4Type="SystemScopeBoundary" c4Application="Software System" label="&lt;font style=&quot;font-size: 16px&quot;&gt;&lt;b&gt;&lt;div style=&quot;text-align: left&quot;&gt;%c4Name%&lt;/div&gt;&lt;/b&gt;&lt;/font&gt;&lt;div style=&quot;text-align: left&quot;&gt;[%c4Application%]&lt;/div&gt;" id="qkIq2tXFl79Hgy0URCup-47">
          <mxCell style="rounded=1;fontSize=11;whiteSpace=wrap;html=1;dashed=1;arcSize=20;fillColor=none;strokeColor=#666666;fontColor=#333333;labelBackgroundColor=none;align=left;verticalAlign=bottom;labelBorderColor=none;spacingTop=0;spacing=10;dashPattern=8 4;metaEdit=1;rotatable=0;perimeter=rectanglePerimeter;noLabel=0;labelPadding=0;allowArrows=0;connectable=0;expand=0;recursiveResize=0;editable=1;pointerEvents=0;absoluteArcSize=1;points=[[0.25,0,0],[0.5,0,0],[0.75,0,0],[1,0.25,0],[1,0.5,0],[1,0.75,0],[0.75,1,0],[0.5,1,0],[0.25,1,0],[0,0.75,0],[0,0.5,0],[0,0.25,0]];" parent="ixkteqPNMbEx-SlJI8Yq-18" vertex="1">
            <mxGeometry y="250" width="950" height="600" as="geometry" />
          </mxCell>
        </object>
        <object placeholders="1" c4Name="Данные для аналитики" c4Type="Software System" c4Description="Хранилище, озеро, хотя скорее, небольшой пруд с данными данной системы" label="&lt;font style=&quot;font-size: 16px&quot;&gt;&lt;b&gt;%c4Name%&lt;/b&gt;&lt;/font&gt;&lt;div&gt;[%c4Type%]&lt;/div&gt;&lt;br&gt;&lt;div&gt;&lt;font style=&quot;font-size: 11px&quot;&gt;&lt;font color=&quot;#cccccc&quot;&gt;%c4Description%&lt;/font&gt;&lt;/div&gt;" id="qkIq2tXFl79Hgy0URCup-48">
          <mxCell style="rounded=1;whiteSpace=wrap;html=1;labelBackgroundColor=none;fillColor=#1061B0;fontColor=#ffffff;align=center;arcSize=10;strokeColor=#0D5091;metaEdit=1;resizable=0;points=[[0.25,0,0],[0.5,0,0],[0.75,0,0],[1,0.25,0],[1,0.5,0],[1,0.75,0],[0.75,1,0],[0.5,1,0],[0.25,1,0],[0,0.75,0],[0,0.5,0],[0,0.25,0]];" parent="ixkteqPNMbEx-SlJI8Yq-18" vertex="1">
            <mxGeometry x="300" y="650" width="240" height="120" as="geometry" />
          </mxCell>
        </object>
        <object placeholders="1" c4Name="Данные для обучения" c4Type="Software System" c4Description="Данные выбранные из аналитики для обучения ИИ" label="&lt;font style=&quot;font-size: 16px&quot;&gt;&lt;b&gt;%c4Name%&lt;/b&gt;&lt;/font&gt;&lt;div&gt;[%c4Type%]&lt;/div&gt;&lt;br&gt;&lt;div&gt;&lt;font style=&quot;font-size: 11px&quot;&gt;&lt;font color=&quot;#cccccc&quot;&gt;%c4Description%&lt;/font&gt;&lt;/div&gt;" id="qkIq2tXFl79Hgy0URCup-49">
          <mxCell style="rounded=1;whiteSpace=wrap;html=1;labelBackgroundColor=none;fillColor=#1061B0;fontColor=#ffffff;align=center;arcSize=10;strokeColor=#0D5091;metaEdit=1;resizable=0;points=[[0.25,0,0],[0.5,0,0],[0.75,0,0],[1,0.25,0],[1,0.5,0],[1,0.75,0],[0.75,1,0],[0.5,1,0],[0.25,1,0],[0,0.75,0],[0,0.5,0],[0,0.25,0]];" parent="ixkteqPNMbEx-SlJI8Yq-18" vertex="1">
            <mxGeometry x="690" y="650" width="240" height="120" as="geometry" />
          </mxCell>
        </object>
        <object placeholders="1" c4Type="Relationship" c4Description="Данные для ИИ" label="&lt;div style=&quot;text-align: left&quot;&gt;&lt;div style=&quot;text-align: center&quot;&gt;&lt;b&gt;%c4Description%&lt;/b&gt;&lt;/div&gt;" id="qkIq2tXFl79Hgy0URCup-50">
          <mxCell style="endArrow=blockThin;html=1;fontSize=10;fontColor=#404040;strokeWidth=1;endFill=1;strokeColor=#828282;elbow=vertical;metaEdit=1;endSize=14;startSize=14;jumpStyle=arc;jumpSize=16;rounded=0;edgeStyle=orthogonalEdgeStyle;" parent="ixkteqPNMbEx-SlJI8Yq-18" source="qkIq2tXFl79Hgy0URCup-48" target="qkIq2tXFl79Hgy0URCup-49" edge="1">
            <mxGeometry width="240" relative="1" as="geometry">
              <mxPoint x="500" y="930" as="sourcePoint" />
              <mxPoint x="740" y="930" as="targetPoint" />
            </mxGeometry>
          </mxCell>
        </object>
        <object placeholders="1" c4Name="Аналитик" c4Type="Person" c4Description="Что-то ищет" label="&lt;font style=&quot;font-size: 16px&quot;&gt;&lt;b&gt;%c4Name%&lt;/b&gt;&lt;/font&gt;&lt;div&gt;[%c4Type%]&lt;/div&gt;&lt;br&gt;&lt;div&gt;&lt;font style=&quot;font-size: 11px&quot;&gt;&lt;font color=&quot;#cccccc&quot;&gt;%c4Description%&lt;/font&gt;&lt;/div&gt;" id="qkIq2tXFl79Hgy0URCup-51">
          <mxCell style="html=1;fontSize=11;dashed=0;whiteSpace=wrap;fillColor=#083F75;strokeColor=#06315C;fontColor=#ffffff;shape=mxgraph.c4.person2;align=center;metaEdit=1;points=[[0.5,0,0],[1,0.5,0],[1,0.75,0],[0.75,1,0],[0.5,1,0],[0.25,1,0],[0,0.75,0],[0,0.5,0]];resizable=0;" parent="ixkteqPNMbEx-SlJI8Yq-18" vertex="1">
            <mxGeometry x="30" y="510" width="200" height="180" as="geometry" />
          </mxCell>
        </object>
        <object placeholders="1" c4Type="Relationship" c4Description="Подготовка данных" label="&lt;div style=&quot;text-align: left&quot;&gt;&lt;div style=&quot;text-align: center&quot;&gt;&lt;b&gt;%c4Description%&lt;/b&gt;&lt;/div&gt;" id="qkIq2tXFl79Hgy0URCup-52">
          <mxCell style="endArrow=blockThin;html=1;fontSize=10;fontColor=#404040;strokeWidth=1;endFill=1;strokeColor=#828282;elbow=vertical;metaEdit=1;endSize=14;startSize=14;jumpStyle=arc;jumpSize=16;rounded=0;edgeStyle=orthogonalEdgeStyle;" parent="ixkteqPNMbEx-SlJI8Yq-18" source="qkIq2tXFl79Hgy0URCup-51" target="qkIq2tXFl79Hgy0URCup-48" edge="1">
            <mxGeometry x="0.1579" width="240" relative="1" as="geometry">
              <mxPoint x="500" y="870" as="sourcePoint" />
              <mxPoint x="740" y="870" as="targetPoint" />
              <Array as="points">
                <mxPoint x="130" y="710" />
              </Array>
              <mxPoint as="offset" />
            </mxGeometry>
          </mxCell>
        </object>
        <object placeholders="1" c4Name="Инженер обучения" c4Type="Person" c4Description="Учит" label="&lt;font style=&quot;font-size: 16px&quot;&gt;&lt;b&gt;%c4Name%&lt;/b&gt;&lt;/font&gt;&lt;div&gt;[%c4Type%]&lt;/div&gt;&lt;br&gt;&lt;div&gt;&lt;font style=&quot;font-size: 11px&quot;&gt;&lt;font color=&quot;#cccccc&quot;&gt;%c4Description%&lt;/font&gt;&lt;/div&gt;" id="qkIq2tXFl79Hgy0URCup-53">
          <mxCell style="html=1;fontSize=11;dashed=0;whiteSpace=wrap;fillColor=#083F75;strokeColor=#06315C;fontColor=#ffffff;shape=mxgraph.c4.person2;align=center;metaEdit=1;points=[[0.5,0,0],[1,0.5,0],[1,0.75,0],[0.75,1,0],[0.5,1,0],[0.25,1,0],[0,0.75,0],[0,0.5,0]];resizable=0;" parent="ixkteqPNMbEx-SlJI8Yq-18" vertex="1">
            <mxGeometry x="710" y="420" width="200" height="180" as="geometry" />
          </mxCell>
        </object>
        <object placeholders="1" c4Type="Relationship" c4Description="Подготовка данных" label="&lt;div style=&quot;text-align: left&quot;&gt;&lt;div style=&quot;text-align: center&quot;&gt;&lt;b&gt;%c4Description%&lt;/b&gt;&lt;/div&gt;" id="qkIq2tXFl79Hgy0URCup-54">
          <mxCell style="endArrow=blockThin;html=1;fontSize=10;fontColor=#404040;strokeWidth=1;endFill=1;strokeColor=#828282;elbow=vertical;metaEdit=1;endSize=14;startSize=14;jumpStyle=arc;jumpSize=16;rounded=0;edgeStyle=orthogonalEdgeStyle;" parent="ixkteqPNMbEx-SlJI8Yq-18" source="qkIq2tXFl79Hgy0URCup-53" target="qkIq2tXFl79Hgy0URCup-49" edge="1">
            <mxGeometry width="240" relative="1" as="geometry">
              <mxPoint x="140" y="700" as="sourcePoint" />
              <mxPoint x="310" y="720" as="targetPoint" />
            </mxGeometry>
          </mxCell>
        </object>
        <object placeholders="1" c4Name="Врач" c4Type="Person" c4Description="Кройка, шитье и многое другое" label="&lt;font style=&quot;font-size: 16px&quot;&gt;&lt;b&gt;%c4Name%&lt;/b&gt;&lt;/font&gt;&lt;div&gt;[%c4Type%]&lt;/div&gt;&lt;br&gt;&lt;div&gt;&lt;font style=&quot;font-size: 11px&quot;&gt;&lt;font color=&quot;#cccccc&quot;&gt;%c4Description%&lt;/font&gt;&lt;/div&gt;" id="qkIq2tXFl79Hgy0URCup-1">
          <mxCell style="html=1;fontSize=11;dashed=0;whiteSpace=wrap;fillColor=#083F75;strokeColor=#06315C;fontColor=#ffffff;shape=mxgraph.c4.person2;align=center;metaEdit=1;points=[[0.5,0,0],[1,0.5,0],[1,0.75,0],[0.75,1,0],[0.5,1,0],[0.25,1,0],[0,0.75,0],[0,0.5,0]];resizable=0;" parent="ixkteqPNMbEx-SlJI8Yq-18" vertex="1">
            <mxGeometry x="30" y="258" width="200" height="180" as="geometry" />
          </mxCell>
        </object>
        <mxCell id="ixkteqPNMbEx-SlJI8Yq-19" value="" style="group" vertex="1" connectable="0" parent="1">
          <mxGeometry x="-10" y="160" width="510" height="410" as="geometry" />
        </mxCell>
        <object placeholders="1" c4Name="ИИ" c4Type="Software System" c4Description="Очень быстрый и очень умный, но не всегда" label="&lt;font style=&quot;font-size: 16px&quot;&gt;&lt;b&gt;%c4Name%&lt;/b&gt;&lt;/font&gt;&lt;div&gt;[%c4Type%]&lt;/div&gt;&lt;br&gt;&lt;div&gt;&lt;font style=&quot;font-size: 11px&quot;&gt;&lt;font color=&quot;#cccccc&quot;&gt;%c4Description%&lt;/font&gt;&lt;/div&gt;" id="qkIq2tXFl79Hgy0URCup-2">
          <mxCell style="rounded=1;whiteSpace=wrap;html=1;labelBackgroundColor=none;fillColor=#1061B0;fontColor=#ffffff;align=center;arcSize=10;strokeColor=#0D5091;metaEdit=1;resizable=0;points=[[0.25,0,0],[0.5,0,0],[0.75,0,0],[1,0.25,0],[1,0.5,0],[1,0.75,0],[0.75,1,0],[0.5,1,0],[0.25,1,0],[0,0.75,0],[0,0.5,0],[0,0.25,0]];" parent="ixkteqPNMbEx-SlJI8Yq-19" vertex="1">
            <mxGeometry x="200" y="40" width="240" height="120" as="geometry" />
          </mxCell>
        </object>
        <object placeholders="1" c4Name="Каталог данных" c4Type="Software System" c4Description="Все разложено по папочкам" label="&lt;font style=&quot;font-size: 16px&quot;&gt;&lt;b&gt;%c4Name%&lt;/b&gt;&lt;/font&gt;&lt;div&gt;[%c4Type%]&lt;/div&gt;&lt;br&gt;&lt;div&gt;&lt;font style=&quot;font-size: 11px&quot;&gt;&lt;font color=&quot;#cccccc&quot;&gt;%c4Description%&lt;/font&gt;&lt;/div&gt;" id="ixkteqPNMbEx-SlJI8Yq-11">
          <mxCell style="rounded=1;whiteSpace=wrap;html=1;labelBackgroundColor=none;fillColor=#1061B0;fontColor=#ffffff;align=center;arcSize=10;strokeColor=#0D5091;metaEdit=1;resizable=0;points=[[0.25,0,0],[0.5,0,0],[0.75,0,0],[1,0.25,0],[1,0.5,0],[1,0.75,0],[0.75,1,0],[0.5,1,0],[0.25,1,0],[0,0.75,0],[0,0.5,0],[0,0.25,0]];" vertex="1" parent="ixkteqPNMbEx-SlJI8Yq-19">
            <mxGeometry x="90" y="190" width="240" height="120" as="geometry" />
          </mxCell>
        </object>
        <object placeholders="1" c4Name="Большие данные" c4Type="SystemScopeBoundary" c4Application="Software System" label="&lt;font style=&quot;font-size: 16px&quot;&gt;&lt;b&gt;&lt;div style=&quot;text-align: left&quot;&gt;%c4Name%&lt;/div&gt;&lt;/b&gt;&lt;/font&gt;&lt;div style=&quot;text-align: left&quot;&gt;[%c4Application%]&lt;/div&gt;" id="ixkteqPNMbEx-SlJI8Yq-17">
          <mxCell style="rounded=1;fontSize=11;whiteSpace=wrap;html=1;dashed=1;arcSize=20;fillColor=none;strokeColor=#666666;fontColor=#333333;labelBackgroundColor=none;align=left;verticalAlign=bottom;labelBorderColor=none;spacingTop=0;spacing=10;dashPattern=8 4;metaEdit=1;rotatable=0;perimeter=rectanglePerimeter;noLabel=0;labelPadding=0;allowArrows=0;connectable=0;expand=0;recursiveResize=0;editable=1;pointerEvents=0;absoluteArcSize=1;points=[[0.25,0,0],[0.5,0,0],[0.75,0,0],[1,0.25,0],[1,0.5,0],[1,0.75,0],[0.75,1,0],[0.5,1,0],[0.25,1,0],[0,0.75,0],[0,0.5,0],[0,0.25,0]];" vertex="1" parent="ixkteqPNMbEx-SlJI8Yq-19">
            <mxGeometry width="510" height="410" as="geometry" />
          </mxCell>
        </object>
        <mxCell id="ixkteqPNMbEx-SlJI8Yq-20" value="" style="group" vertex="1" connectable="0" parent="1">
          <mxGeometry x="860" y="-155" width="1000" height="740" as="geometry" />
        </mxCell>
        <object placeholders="1" c4Name="Сотрудник банка" c4Type="Person" c4Description="Переводит, кладет т.д." label="&lt;font style=&quot;font-size: 16px&quot;&gt;&lt;b&gt;%c4Name%&lt;/b&gt;&lt;/font&gt;&lt;div&gt;[%c4Type%]&lt;/div&gt;&lt;br&gt;&lt;div&gt;&lt;font style=&quot;font-size: 11px&quot;&gt;&lt;font color=&quot;#cccccc&quot;&gt;%c4Description%&lt;/font&gt;&lt;/div&gt;" id="soOGA839N_4_trMZJZCc-3">
          <mxCell style="html=1;fontSize=11;dashed=0;whiteSpace=wrap;fillColor=#083F75;strokeColor=#06315C;fontColor=#ffffff;shape=mxgraph.c4.person2;align=center;metaEdit=1;points=[[0.5,0,0],[1,0.5,0],[1,0.75,0],[0.75,1,0],[0.5,1,0],[0.25,1,0],[0,0.75,0],[0,0.5,0]];resizable=0;" parent="ixkteqPNMbEx-SlJI8Yq-20" vertex="1">
            <mxGeometry x="40" y="30" width="200" height="180" as="geometry" />
          </mxCell>
        </object>
        <object placeholders="1" c4Name="Банк &quot;Купленный&quot;" c4Type="Software System" c4Description="Недавно купленный банк. Источник водицы для болота" label="&lt;font style=&quot;font-size: 16px&quot;&gt;&lt;b&gt;%c4Name%&lt;/b&gt;&lt;/font&gt;&lt;div&gt;[%c4Type%]&lt;/div&gt;&lt;br&gt;&lt;div&gt;&lt;font style=&quot;font-size: 11px&quot;&gt;&lt;font color=&quot;#cccccc&quot;&gt;%c4Description%&lt;/font&gt;&lt;/div&gt;" id="qkIq2tXFl79Hgy0URCup-5">
          <mxCell style="rounded=1;whiteSpace=wrap;html=1;labelBackgroundColor=none;fillColor=#1061B0;fontColor=#ffffff;align=center;arcSize=10;strokeColor=#0D5091;metaEdit=1;resizable=0;points=[[0.25,0,0],[0.5,0,0],[0.75,0,0],[1,0.25,0],[1,0.5,0],[1,0.75,0],[0.75,1,0],[0.5,1,0],[0.25,1,0],[0,0.75,0],[0,0.5,0],[0,0.25,0]];" parent="ixkteqPNMbEx-SlJI8Yq-20" vertex="1">
            <mxGeometry x="290" y="350" width="240" height="120" as="geometry" />
          </mxCell>
        </object>
        <object placeholders="1" c4Type="Relationship" c4Description="Небольшие большие данные" label="&lt;div style=&quot;text-align: left&quot;&gt;&lt;div style=&quot;text-align: center&quot;&gt;&lt;b&gt;%c4Description%&lt;/b&gt;&lt;/div&gt;" id="qkIq2tXFl79Hgy0URCup-6">
          <mxCell style="endArrow=blockThin;html=1;fontSize=10;fontColor=#404040;strokeWidth=1;endFill=1;strokeColor=#828282;elbow=vertical;metaEdit=1;endSize=14;startSize=14;jumpStyle=arc;jumpSize=16;rounded=0;edgeStyle=orthogonalEdgeStyle;" parent="ixkteqPNMbEx-SlJI8Yq-20" source="qkIq2tXFl79Hgy0URCup-5" target="qkIq2tXFl79Hgy0URCup-16" edge="1">
            <mxGeometry width="240" relative="1" as="geometry">
              <mxPoint x="350" y="510" as="sourcePoint" />
              <mxPoint x="280" y="710" as="targetPoint" />
              <Array as="points">
                <mxPoint x="450" y="610" />
              </Array>
            </mxGeometry>
          </mxCell>
        </object>
        <object placeholders="1" c4Name="Банк &quot;Купленный&quot;" c4Type="SystemScopeBoundary" c4Application="Software System" label="&lt;font style=&quot;font-size: 16px&quot;&gt;&lt;b&gt;&lt;div style=&quot;text-align: left&quot;&gt;%c4Name%&lt;/div&gt;&lt;/b&gt;&lt;/font&gt;&lt;div style=&quot;text-align: left&quot;&gt;[%c4Application%]&lt;/div&gt;" id="qkIq2tXFl79Hgy0URCup-15">
          <mxCell style="rounded=1;fontSize=11;whiteSpace=wrap;html=1;dashed=1;arcSize=20;fillColor=none;strokeColor=#666666;fontColor=#333333;labelBackgroundColor=none;align=left;verticalAlign=bottom;labelBorderColor=none;spacingTop=0;spacing=10;dashPattern=8 4;metaEdit=1;rotatable=0;perimeter=rectanglePerimeter;noLabel=0;labelPadding=0;allowArrows=0;connectable=0;expand=0;recursiveResize=0;editable=1;pointerEvents=0;absoluteArcSize=1;points=[[0.25,0,0],[0.5,0,0],[0.75,0,0],[1,0.25,0],[1,0.5,0],[1,0.75,0],[0.75,1,0],[0.5,1,0],[0.25,1,0],[0,0.75,0],[0,0.5,0],[0,0.25,0]];" parent="ixkteqPNMbEx-SlJI8Yq-20" vertex="1">
            <mxGeometry width="1000" height="740" as="geometry" />
          </mxCell>
        </object>
        <object placeholders="1" c4Name="Данные для аналитики" c4Type="Software System" c4Description="Хранилище, озеро, хотя скорее, небольшой пруд с данными данной системы" label="&lt;font style=&quot;font-size: 16px&quot;&gt;&lt;b&gt;%c4Name%&lt;/b&gt;&lt;/font&gt;&lt;div&gt;[%c4Type%]&lt;/div&gt;&lt;br&gt;&lt;div&gt;&lt;font style=&quot;font-size: 11px&quot;&gt;&lt;font color=&quot;#cccccc&quot;&gt;%c4Description%&lt;/font&gt;&lt;/div&gt;" id="qkIq2tXFl79Hgy0URCup-16">
          <mxCell style="rounded=1;whiteSpace=wrap;html=1;labelBackgroundColor=none;fillColor=#1061B0;fontColor=#ffffff;align=center;arcSize=10;strokeColor=#0D5091;metaEdit=1;resizable=0;points=[[0.25,0,0],[0.5,0,0],[0.75,0,0],[1,0.25,0],[1,0.5,0],[1,0.75,0],[0.75,1,0],[0.5,1,0],[0.25,1,0],[0,0.75,0],[0,0.5,0],[0,0.25,0]];" parent="ixkteqPNMbEx-SlJI8Yq-20" vertex="1">
            <mxGeometry x="300" y="540" width="240" height="120" as="geometry" />
          </mxCell>
        </object>
        <object placeholders="1" c4Name="Данные для обучения" c4Type="Software System" c4Description="Данные выбранные из аналитики для обучения ИИ" label="&lt;font style=&quot;font-size: 16px&quot;&gt;&lt;b&gt;%c4Name%&lt;/b&gt;&lt;/font&gt;&lt;div&gt;[%c4Type%]&lt;/div&gt;&lt;br&gt;&lt;div&gt;&lt;font style=&quot;font-size: 11px&quot;&gt;&lt;font color=&quot;#cccccc&quot;&gt;%c4Description%&lt;/font&gt;&lt;/div&gt;" id="qkIq2tXFl79Hgy0URCup-17">
          <mxCell style="rounded=1;whiteSpace=wrap;html=1;labelBackgroundColor=none;fillColor=#1061B0;fontColor=#ffffff;align=center;arcSize=10;strokeColor=#0D5091;metaEdit=1;resizable=0;points=[[0.25,0,0],[0.5,0,0],[0.75,0,0],[1,0.25,0],[1,0.5,0],[1,0.75,0],[0.75,1,0],[0.5,1,0],[0.25,1,0],[0,0.75,0],[0,0.5,0],[0,0.25,0]];" parent="ixkteqPNMbEx-SlJI8Yq-20" vertex="1">
            <mxGeometry x="690" y="540" width="240" height="120" as="geometry" />
          </mxCell>
        </object>
        <object placeholders="1" c4Type="Relationship" c4Description="Данные для ИИ" label="&lt;div style=&quot;text-align: left&quot;&gt;&lt;div style=&quot;text-align: center&quot;&gt;&lt;b&gt;%c4Description%&lt;/b&gt;&lt;/div&gt;" id="qkIq2tXFl79Hgy0URCup-18">
          <mxCell style="endArrow=blockThin;html=1;fontSize=10;fontColor=#404040;strokeWidth=1;endFill=1;strokeColor=#828282;elbow=vertical;metaEdit=1;endSize=14;startSize=14;jumpStyle=arc;jumpSize=16;rounded=0;edgeStyle=orthogonalEdgeStyle;" parent="ixkteqPNMbEx-SlJI8Yq-20" source="qkIq2tXFl79Hgy0URCup-16" target="qkIq2tXFl79Hgy0URCup-17" edge="1">
            <mxGeometry width="240" relative="1" as="geometry">
              <mxPoint x="500" y="820" as="sourcePoint" />
              <mxPoint x="740" y="820" as="targetPoint" />
            </mxGeometry>
          </mxCell>
        </object>
        <object placeholders="1" c4Name="Аналитик" c4Type="Person" c4Description="Что-то ищет" label="&lt;font style=&quot;font-size: 16px&quot;&gt;&lt;b&gt;%c4Name%&lt;/b&gt;&lt;/font&gt;&lt;div&gt;[%c4Type%]&lt;/div&gt;&lt;br&gt;&lt;div&gt;&lt;font style=&quot;font-size: 11px&quot;&gt;&lt;font color=&quot;#cccccc&quot;&gt;%c4Description%&lt;/font&gt;&lt;/div&gt;" id="qkIq2tXFl79Hgy0URCup-23">
          <mxCell style="html=1;fontSize=11;dashed=0;whiteSpace=wrap;fillColor=#083F75;strokeColor=#06315C;fontColor=#ffffff;shape=mxgraph.c4.person2;align=center;metaEdit=1;points=[[0.5,0,0],[1,0.5,0],[1,0.75,0],[0.75,1,0],[0.5,1,0],[0.25,1,0],[0,0.75,0],[0,0.5,0]];resizable=0;" parent="ixkteqPNMbEx-SlJI8Yq-20" vertex="1">
            <mxGeometry x="30" y="400" width="200" height="180" as="geometry" />
          </mxCell>
        </object>
        <object placeholders="1" c4Type="Relationship" c4Description="Подготовка данных" label="&lt;div style=&quot;text-align: left&quot;&gt;&lt;div style=&quot;text-align: center&quot;&gt;&lt;b&gt;%c4Description%&lt;/b&gt;&lt;/div&gt;" id="qkIq2tXFl79Hgy0URCup-25">
          <mxCell style="endArrow=blockThin;html=1;fontSize=10;fontColor=#404040;strokeWidth=1;endFill=1;strokeColor=#828282;elbow=vertical;metaEdit=1;endSize=14;startSize=14;jumpStyle=arc;jumpSize=16;rounded=0;edgeStyle=orthogonalEdgeStyle;" parent="ixkteqPNMbEx-SlJI8Yq-20" source="qkIq2tXFl79Hgy0URCup-23" target="qkIq2tXFl79Hgy0URCup-16" edge="1">
            <mxGeometry x="0.1579" width="240" relative="1" as="geometry">
              <mxPoint x="500" y="760" as="sourcePoint" />
              <mxPoint x="740" y="760" as="targetPoint" />
              <Array as="points">
                <mxPoint x="130" y="600" />
              </Array>
              <mxPoint as="offset" />
            </mxGeometry>
          </mxCell>
        </object>
        <object placeholders="1" c4Name="Инженер обучения" c4Type="Person" c4Description="Учит" label="&lt;font style=&quot;font-size: 16px&quot;&gt;&lt;b&gt;%c4Name%&lt;/b&gt;&lt;/font&gt;&lt;div&gt;[%c4Type%]&lt;/div&gt;&lt;br&gt;&lt;div&gt;&lt;font style=&quot;font-size: 11px&quot;&gt;&lt;font color=&quot;#cccccc&quot;&gt;%c4Description%&lt;/font&gt;&lt;/div&gt;" id="qkIq2tXFl79Hgy0URCup-26">
          <mxCell style="html=1;fontSize=11;dashed=0;whiteSpace=wrap;fillColor=#083F75;strokeColor=#06315C;fontColor=#ffffff;shape=mxgraph.c4.person2;align=center;metaEdit=1;points=[[0.5,0,0],[1,0.5,0],[1,0.75,0],[0.75,1,0],[0.5,1,0],[0.25,1,0],[0,0.75,0],[0,0.5,0]];resizable=0;" parent="ixkteqPNMbEx-SlJI8Yq-20" vertex="1">
            <mxGeometry x="710" y="310" width="200" height="180" as="geometry" />
          </mxCell>
        </object>
        <object placeholders="1" c4Type="Relationship" c4Description="Подготовка данных" label="&lt;div style=&quot;text-align: left&quot;&gt;&lt;div style=&quot;text-align: center&quot;&gt;&lt;b&gt;%c4Description%&lt;/b&gt;&lt;/div&gt;" id="qkIq2tXFl79Hgy0URCup-27">
          <mxCell style="endArrow=blockThin;html=1;fontSize=10;fontColor=#404040;strokeWidth=1;endFill=1;strokeColor=#828282;elbow=vertical;metaEdit=1;endSize=14;startSize=14;jumpStyle=arc;jumpSize=16;rounded=0;edgeStyle=orthogonalEdgeStyle;" parent="ixkteqPNMbEx-SlJI8Yq-20" source="qkIq2tXFl79Hgy0URCup-26" target="qkIq2tXFl79Hgy0URCup-17" edge="1">
            <mxGeometry width="240" relative="1" as="geometry">
              <mxPoint x="140" y="590" as="sourcePoint" />
              <mxPoint x="310" y="610" as="targetPoint" />
            </mxGeometry>
          </mxCell>
        </object>
      </root>
    </mxGraphModel>
  </diagram>
</mxfile>
